<svg width="44" height="44" viewBox="0 0 44 44" fill="none" xmlns="http://www.w3.org/2000/svg">
<g clip-path="url(#clip0_83_895)">
<rect x="1.5" y="1.5" width="41" height="41" rx="8.5" fill="#1A1A1A"/>
<rect x="1.5" y="1.5" width="41" height="41" rx="8.5" stroke="#262626" stroke-width="3"/>
<rect x="1.5" y="1.5" width="41" height="41" rx="8.5" stroke="white" stroke-opacity="0.1" stroke-width="3"/>
<g opacity="0.1" filter="url(#filter0_f_83_895)">
<circle cx="4" cy="100" r="80" fill="#F16436"/>
</g>
<path d="M30.4346 18.4756C30.4346 18.4756 36.9682 17.4363 38 14.4052H27.9912V12H6L8.70907 15.171V18.42C8.70907 18.42 15.5446 18.0614 18.1888 20.0841C21.8082 23.4682 14.118 28.0427 14.118 28.0427L12.7994 32.4444C14.8614 30.4638 18.7916 27.9015 25.9972 28.0251C23.2551 28.8993 20.4979 30.2647 18.3513 32.4444H32.9177L31.546 28.0427C31.546 28.0427 20.9887 21.7625 30.4346 18.4756Z" fill="#F16436"/>
</g>
<rect x="1" y="1" width="42" height="42" rx="9" stroke="#262626" stroke-width="2"/>
<defs>
<filter id="filter0_f_83_895" x="-140" y="-44" width="288" height="288" filterUnits="userSpaceOnUse" color-interpolation-filters="sRGB">
<feFlood flood-opacity="0" result="BackgroundImageFix"/>
<feBlend mode="normal" in="SourceGraphic" in2="BackgroundImageFix" result="shape"/>
<feGaussianBlur stdDeviation="32" result="effect1_foregroundBlur_83_895"/>
</filter>
<clipPath id="clip0_83_895">
<rect width="44" height="44" rx="10" fill="white"/>
</clipPath>
</defs>
</svg>
