<svg width="44" height="44" viewBox="0 0 44 44" fill="none" xmlns="http://www.w3.org/2000/svg">
<g clip-path="url(#clip0_83_454)">
<rect x="1.5" y="1.5" width="41" height="41" rx="8.5" fill="#757580"/>
<rect x="1.5" y="1.5" width="41" height="41" rx="8.5" fill="black" fill-opacity="0.8"/>
<rect x="1.5" y="1.5" width="41" height="41" rx="8.5" stroke="#757580" stroke-width="3"/>
<rect x="1.5" y="1.5" width="41" height="41" rx="8.5" stroke="black" stroke-opacity="0.5" stroke-width="3"/>
<g opacity="0.1" filter="url(#filter0_f_83_454)">
<circle cx="4" cy="100" r="80" fill="#E68C37"/>
</g>
<path d="M34.4444 35.4445H32.6667V33.6667H34.4444V35.4445ZM9.55556 35.4445H11.3333V33.6667H9.55556V35.4445Z" fill="#A0A5A9"/>
<path d="M22 28.3333H23.7778V30.1111H20.2222V28.3333H22ZM25.5556 26.5555H27.3333V24.7778H25.5556V26.5555ZM16.6667 26.5555H18.4444V24.7778H16.6667V26.5555Z" fill="#13151A"/>
<path d="M34.4444 35.4444H36.2222V37.2222H7.77778V35.4444H34.4444ZM34.4444 31.8889H32.6667V33.6667H34.4444V31.8889ZM11.3333 33.6667V31.8889H9.55556V33.6667H11.3333ZM7.77778 31.8889V23H6V35.4444H7.77778V31.8889ZM36.2222 24.7778V35.4444H38V23H36.2222V24.7778Z" fill="#757580"/>
<path d="M25.5556 23H27.3333V24.7778H25.5556V23ZM16.6667 24.7778H18.4444V23H16.6667V24.7778Z" fill="#262A33"/>
<path d="M20.2222 31.8889H18.4444V28.3333H20.2222V31.8889ZM25.5556 28.3333H23.7778V31.8889H25.5556V28.3333ZM16.6667 23V21.2222H14.8889V24.7778H16.6667V23ZM29.1111 21.2222H27.3333V24.7778H29.1111V21.2222Z" fill="#F9F4F4"/>
<path d="M25.5556 26.5556V21.2222H29.1111V19.4445H25.5556V17.6667H23.7778V21.2222H22V23H20.2222V17.6667H18.4444V19.4445H14.8889V21.2222H18.4444V26.5556H14.8889V28.3334H29.1111V26.5556H25.5556ZM22 26.5556H20.2222V24.7778H23.7778V26.5556H22ZM30.8889 24.7778V26.5556H29.1111V24.7778H30.8889ZM14.8889 26.5556H13.1111V24.7778H14.8889V26.5556ZM29.1111 21.2222H30.8889V23H29.1111V21.2222ZM14.8889 23H13.1111V21.2222H14.8889V23Z" fill="#D7742F"/>
<path d="M20.2222 17.6667V19.4445V21.2222V23H22V21.2222H23.7778V19.4445V17.6667H22H20.2222Z" fill="#E68C37"/>
<path d="M29.1111 28.3334V30.1111H25.5556V28.3334H29.1111ZM18.4444 30.1111V28.3334H14.8889V30.1111H18.4444ZM22 24.7778H20.2222V26.5556H23.7778V24.7778H22ZM29.1111 24.7778H30.8889V23H29.1111V24.7778ZM13.1111 23V24.7778H14.8889V23H13.1111ZM32.6667 23V21.2222H30.8889V23H32.6667ZM11.3333 21.2222V23H13.1111V21.2222H11.3333ZM29.1111 21.2222H30.8889V19.4445H29.1111V21.2222ZM14.8889 19.4445H13.1111V21.2222H14.8889V19.4445ZM25.5556 17.6667V19.4445H29.1111V17.6667H25.5556ZM14.8889 17.6667V19.4445H18.4444V17.6667H14.8889ZM22 17.6667H23.7778V15.8889H20.2222V17.6667H22Z" fill="#BF6134"/>
<path d="M25.5556 17.6667V15.8889H27.3333V17.6667H25.5556ZM16.6667 17.6667H18.4444V15.8889H16.6667V17.6667Z" fill="#C7A3B9"/>
<path d="M23.7778 31.8889H25.5556V33.6666H18.4444V31.8889H23.7778ZM25.5556 30.1111V31.8889H29.1111V30.1111H25.5556ZM16.6667 30.1111H14.8889V31.8889H18.4444V30.1111H16.6667ZM29.1111 28.3333V30.1111H30.8889V26.5555H29.1111V28.3333ZM14.8889 26.5555H13.1111V30.1111H14.8889V26.5555ZM30.8889 26.5555H32.6667V24.7778H30.8889V26.5555ZM11.3333 24.7778V26.5555H13.1111V24.7778H11.3333ZM14.8889 17.6666V15.8889H13.1111V19.4444H14.8889V17.6666ZM29.1111 17.6666V19.4444H30.8889V15.8889H29.1111V17.6666ZM25.5556 17.6666V15.8889H23.7778V17.6666H25.5556ZM20.2222 17.6666V15.8889H18.4444V17.6666H20.2222ZM23.7778 15.8889V14.1111H20.2222V15.8889H23.7778Z" fill="#A44E37"/>
<path d="M22 30.1111H23.7778V31.8889H20.2222V30.1111H22ZM27.3333 26.5555H29.1111V24.7778H27.3333V26.5555ZM16.6667 24.7778H14.8889V26.5555H16.6667V24.7778ZM25.5556 23H27.3333V21.2222H25.5556V23ZM18.4444 23V21.2222H16.6667V23H18.4444ZM27.3333 14.1111H25.5556V15.8889H27.3333V14.1111ZM16.6667 15.8889H18.4444V14.1111H16.6667V15.8889Z" fill="#E7D9D3"/>
<path d="M27.3333 14.1111H29.1111V15.8889H27.3333V14.1111ZM16.6667 15.8889V14.1111H14.8889V15.8889H16.6667ZM25.5556 14.1111H27.3333V12.3333H25.5556V14.1111ZM18.4444 14.1111V12.3333H16.6667V14.1111H18.4444Z" fill="#8D7168"/>
<path d="M13.1111 24.7778H9.55556V31.8889H7.77778V15.8889H9.55556V14.1111H11.3333V15.8889H13.1111V21.2222H11.3333V23H13.1111V24.7778ZM11.3333 14.1111H14.8889V12.3333H13.1111V10.5555H11.3333V14.1111ZM9.55556 12.3333H7.77778V14.1111H9.55556V12.3333ZM34.4444 12.3333H32.6667V10.5555H27.3333V12.3333H29.1111V14.1111H30.8889V21.2222H32.6667V23H34.4444V17.6667H36.2222V15.8889H34.4444V14.1111H36.2222V10.5555H34.4444V12.3333ZM23.7778 12.3333V10.5555H22V12.3333H23.7778Z" fill="#BDC7C7"/>
<path d="M27.3333 17.6667V15.8889H29.1111V17.6667H27.3333ZM16.6667 15.8889H14.8889V17.6667H16.6667V15.8889ZM30.8889 15.8889V14.1111H29.1111V15.8889H30.8889ZM14.8889 14.1111H13.1111V15.8889H14.8889V14.1111ZM29.1111 14.1111V12.3333H27.3333V14.1111H29.1111ZM23.7778 14.1111V15.8889H25.5556V12.3333H27.3333V10.5555H23.7778V14.1111ZM16.6667 12.3333H14.8889V14.1111H16.6667V12.3333ZM16.6667 10.5555V12.3333H18.4444V15.8889H20.2222V10.5555H16.6667Z" fill="#66534D"/>
<path d="M32.6667 23H34.4444V24.7778H30.8889V23H32.6667ZM11.3333 14.1111V15.8889H13.1111V14.1111H11.3333ZM20.2222 14.1111H23.7778V12.3333H22V10.5555H20.2222V14.1111ZM9.55556 12.3333V14.1111H11.3333V12.3333H9.55556ZM16.6667 10.5555H13.1111V12.3333H16.6667V10.5555Z" fill="#C7D1D1"/>
<path d="M9.55556 35.4444H7.77778V31.8889H9.55556V35.4444ZM36.2222 31.8889V17.6667H34.4444V24.7778H32.6667V26.5555H30.8889V30.1111H29.1111V31.8889H25.5556V33.6667H18.4444V31.8889H14.8889V30.1111H13.1111V26.5555H11.3333V24.7778H9.55556V31.8889H11.3333V35.4444H32.6667V31.8889H34.4444V35.4444H36.2222V31.8889ZM34.4444 15.8889H36.2222V14.1111H34.4444V15.8889ZM34.4444 12.3333V10.5555H32.6667V12.3333H34.4444ZM11.3333 12.3333V10.5555H9.55556V12.3333H11.3333Z" fill="#AAB0B3"/>
<path d="M9.55556 12.3333H7.77778V10.5555H9.55556V12.3333ZM14.8889 10.5555H20.2222V8.77777H11.3333V10.5555H14.8889Z" fill="#E6F2F1"/>
<path d="M9.55556 15.8889H7.77778V14.1111H9.55556V15.8889ZM32.6667 8.77777H20.2222V10.5555H36.2222V8.77777H32.6667ZM9.55556 10.5555H11.3333V8.77777H7.77778V10.5555H9.55556Z" fill="#D5E0DF"/>
<path d="M7.77778 23H6V8.77778H7.77778V23ZM36.2222 8.77778V23H38V8.77778H36.2222ZM11.3333 8.77778H36.2222V7H7.77778V8.77778H11.3333Z" fill="#8B8E94"/>
</g>
<rect x="1" y="1" width="42" height="42" rx="9" stroke="#757580" stroke-width="2"/>
<rect x="1" y="1" width="42" height="42" rx="9" stroke="black" stroke-opacity="0.7" stroke-width="2"/>
<defs>
<filter id="filter0_f_83_454" x="-140" y="-44" width="288" height="288" filterUnits="userSpaceOnUse" color-interpolation-filters="sRGB">
<feFlood flood-opacity="0" result="BackgroundImageFix"/>
<feBlend mode="normal" in="SourceGraphic" in2="BackgroundImageFix" result="shape"/>
<feGaussianBlur stdDeviation="32" result="effect1_foregroundBlur_83_454"/>
</filter>
<clipPath id="clip0_83_454">
<rect width="44" height="44" rx="10" fill="white"/>
</clipPath>
</defs>
</svg>
