<svg width="80" height="80" viewBox="0 0 80 80" fill="none" xmlns="http://www.w3.org/2000/svg">
<g clip-path="url(#clip0_83_451)">
<rect x="1.5" y="1.5" width="77" height="77" rx="8.5" fill="#757580"/>
<rect x="1.5" y="1.5" width="77" height="77" rx="8.5" fill="black" fill-opacity="0.8"/>
<rect x="1.5" y="1.5" width="77" height="77" rx="8.5" stroke="#757580" stroke-width="3"/>
<rect x="1.5" y="1.5" width="77" height="77" rx="8.5" stroke="black" stroke-opacity="0.5" stroke-width="3"/>
<g opacity="0.1" filter="url(#filter0_f_83_451)">
<circle cx="40" cy="100" r="80" fill="#E68C37"/>
</g>
<path d="M64.8889 66.8889H61.3333V63.3333H64.8889V66.8889ZM15.1111 66.8889H18.6667V63.3333H15.1111V66.8889Z" fill="#A0A5A9"/>
<path d="M40 52.6667H43.5556V56.2222H36.4444V52.6667H40ZM47.1111 49.1111H50.6667V45.5555H47.1111V49.1111ZM29.3333 49.1111H32.8889V45.5555H29.3333V49.1111Z" fill="#13151A"/>
<path d="M64.8889 66.8889H68.4444V70.4444H11.5556V66.8889H64.8889ZM64.8889 59.7778H61.3333V63.3333H64.8889V59.7778ZM18.6667 63.3333V59.7778H15.1111V63.3333H18.6667ZM11.5556 59.7778V42H8V66.8889H11.5556V59.7778ZM68.4444 45.5556V66.8889H72V42H68.4444V45.5556Z" fill="#757580"/>
<path d="M47.1111 42H50.6667V45.5556H47.1111V42ZM29.3333 45.5556H32.8889V42H29.3333V45.5556Z" fill="#262A33"/>
<path d="M36.4444 59.7778H32.8889V52.6667H36.4444V59.7778ZM47.1111 52.6667H43.5556V59.7778H47.1111V52.6667ZM29.3333 42V38.4445H25.7778V45.5556H29.3333V42ZM54.2222 38.4445H50.6667V45.5556H54.2222V38.4445Z" fill="#F9F4F4"/>
<path d="M47.1111 49.1111V38.4444H54.2222V34.8889H47.1111V31.3333H43.5556V38.4444H40V42H36.4444V31.3333H32.8889V34.8889H25.7778V38.4444H32.8889V49.1111H25.7778V52.6666H54.2222V49.1111H47.1111ZM40 49.1111H36.4444V45.5555H43.5556V49.1111H40ZM57.7778 45.5555V49.1111H54.2222V45.5555H57.7778ZM25.7778 49.1111H22.2222V45.5555H25.7778V49.1111ZM54.2222 38.4444H57.7778V42H54.2222V38.4444ZM25.7778 42H22.2222V38.4444H25.7778V42Z" fill="#D7742F"/>
<path d="M36.4444 31.3333V34.8889V38.4444V42H40V38.4444H43.5556V34.8889V31.3333H40H36.4444Z" fill="#E68C37"/>
<path d="M54.2222 52.6667V56.2222H47.1111V52.6667H54.2222ZM32.8889 56.2222V52.6667H25.7778V56.2222H32.8889ZM40 45.5555H36.4444V49.1111H43.5556V45.5555H40ZM54.2222 45.5555H57.7778V42H54.2222V45.5555ZM22.2222 42V45.5555H25.7778V42H22.2222ZM61.3333 42V38.4444H57.7778V42H61.3333ZM18.6667 38.4444V42H22.2222V38.4444H18.6667ZM54.2222 38.4444H57.7778V34.8889H54.2222V38.4444ZM25.7778 34.8889H22.2222V38.4444H25.7778V34.8889ZM47.1111 31.3333V34.8889H54.2222V31.3333H47.1111ZM25.7778 31.3333V34.8889H32.8889V31.3333H25.7778ZM40 31.3333H43.5556V27.7778H36.4444V31.3333H40Z" fill="#BF6134"/>
<path d="M47.1111 31.3333V27.7778H50.6667V31.3333H47.1111ZM29.3333 31.3333H32.8889V27.7778H29.3333V31.3333Z" fill="#C7A3B9"/>
<path d="M43.5556 59.7778H47.1111V63.3333H32.8889V59.7778H43.5556ZM47.1111 56.2222V59.7778H54.2222V56.2222H47.1111ZM29.3333 56.2222H25.7778V59.7778H32.8889V56.2222H29.3333ZM54.2222 52.6667V56.2222H57.7778V49.1111H54.2222V52.6667ZM25.7778 49.1111H22.2222V56.2222H25.7778V49.1111ZM57.7778 49.1111H61.3333V45.5556H57.7778V49.1111ZM18.6667 45.5556V49.1111H22.2222V45.5556H18.6667ZM25.7778 31.3333V27.7778H22.2222V34.8889H25.7778V31.3333ZM54.2222 31.3333V34.8889H57.7778V27.7778H54.2222V31.3333ZM47.1111 31.3333V27.7778H43.5556V31.3333H47.1111ZM36.4444 31.3333V27.7778H32.8889V31.3333H36.4444ZM43.5556 27.7778V24.2222H36.4444V27.7778H43.5556Z" fill="#A44E37"/>
<path d="M40 56.2222H43.5556V59.7778H36.4444V56.2222H40ZM50.6667 49.1111H54.2222V45.5556H50.6667V49.1111ZM29.3333 45.5556H25.7778V49.1111H29.3333V45.5556ZM47.1111 42H50.6667V38.4445H47.1111V42ZM32.8889 42V38.4445H29.3333V42H32.8889ZM50.6667 24.2222H47.1111V27.7778H50.6667V24.2222ZM29.3333 27.7778H32.8889V24.2222H29.3333V27.7778Z" fill="#E7D9D3"/>
<path d="M50.6667 24.2222H54.2222V27.7778H50.6667V24.2222ZM29.3333 27.7778V24.2222H25.7778V27.7778H29.3333ZM47.1111 24.2222H50.6667V20.6667H47.1111V24.2222ZM32.8889 24.2222V20.6667H29.3333V24.2222H32.8889Z" fill="#8D7168"/>
<path d="M22.2222 45.5555H15.1111V59.7777H11.5556V27.7778H15.1111V24.2222H18.6667V27.7778H22.2222V38.4444H18.6667V42H22.2222V45.5555ZM18.6667 24.2222H25.7778V20.6666H22.2222V17.1111H18.6667V24.2222ZM15.1111 20.6666H11.5556V24.2222H15.1111V20.6666ZM64.8889 20.6666H61.3333V17.1111H50.6667V20.6666H54.2222V24.2222H57.7778V38.4444H61.3333V42H64.8889V31.3333H68.4444V27.7778H64.8889V24.2222H68.4444V17.1111H64.8889V20.6666ZM43.5556 20.6666V17.1111H40V20.6666H43.5556Z" fill="#BDC7C7"/>
<path d="M50.6667 31.3333V27.7778H54.2222V31.3333H50.6667ZM29.3333 27.7778H25.7778V31.3333H29.3333V27.7778ZM57.7778 27.7778V24.2222H54.2222V27.7778H57.7778ZM25.7778 24.2222H22.2222V27.7778H25.7778V24.2222ZM54.2222 24.2222V20.6666H50.6667V24.2222H54.2222ZM43.5556 24.2222V27.7778H47.1111V20.6666H50.6667V17.1111H43.5556V24.2222ZM29.3333 20.6666H25.7778V24.2222H29.3333V20.6666ZM29.3333 17.1111V20.6666H32.8889V27.7778H36.4444V17.1111H29.3333Z" fill="#66534D"/>
<path d="M61.3333 42H64.8889V45.5555H57.7778V42H61.3333ZM18.6667 24.2222V27.7778H22.2222V24.2222H18.6667ZM36.4444 24.2222H43.5556V20.6666H40V17.1111H36.4444V24.2222ZM15.1111 20.6666V24.2222H18.6667V20.6666H15.1111ZM29.3333 17.1111H22.2222V20.6666H29.3333V17.1111Z" fill="#C7D1D1"/>
<path d="M15.1111 66.8889H11.5556V59.7777H15.1111V66.8889ZM68.4444 59.7777V31.3333H64.8889V45.5555H61.3333V49.1111H57.7778V56.2222H54.2222V59.7777H47.1111V63.3333H32.8889V59.7777H25.7778V56.2222H22.2222V49.1111H18.6667V45.5555H15.1111V59.7777H18.6667V66.8889H61.3333V59.7777H64.8889V66.8889H68.4444V59.7777ZM64.8889 27.7778H68.4444V24.2222H64.8889V27.7778ZM64.8889 20.6666V17.1111H61.3333V20.6666H64.8889ZM18.6667 20.6666V17.1111H15.1111V20.6666H18.6667Z" fill="#AAB0B3"/>
<path d="M15.1111 20.6667H11.5556V17.1111H15.1111V20.6667ZM25.7778 17.1111H36.4444V13.5555H18.6667V17.1111H25.7778Z" fill="#E6F2F1"/>
<path d="M15.1111 27.7778H11.5556V24.2222H15.1111V27.7778ZM61.3333 13.5555H36.4444V17.1111H68.4444V13.5555H61.3333ZM15.1111 17.1111H18.6667V13.5555H11.5556V17.1111H15.1111Z" fill="#D5E0DF"/>
<path d="M11.5556 42H8V13.5556H11.5556V42ZM68.4444 13.5556V42H72V13.5556H68.4444ZM18.6667 13.5556H68.4444V10H11.5556V13.5556H18.6667Z" fill="#8B8E94"/>
</g>
<rect x="1" y="1" width="78" height="78" rx="9" stroke="#757580" stroke-width="2"/>
<rect x="1" y="1" width="78" height="78" rx="9" stroke="black" stroke-opacity="0.7" stroke-width="2"/>
<defs>
<filter id="filter0_f_83_451" x="-104" y="-44" width="288" height="288" filterUnits="userSpaceOnUse" color-interpolation-filters="sRGB">
<feFlood flood-opacity="0" result="BackgroundImageFix"/>
<feBlend mode="normal" in="SourceGraphic" in2="BackgroundImageFix" result="shape"/>
<feGaussianBlur stdDeviation="32" result="effect1_foregroundBlur_83_451"/>
</filter>
<clipPath id="clip0_83_451">
<rect width="80" height="80" rx="10" fill="white"/>
</clipPath>
</defs>
</svg>
