<svg width="44" height="44" viewBox="0 0 44 44" fill="none" xmlns="http://www.w3.org/2000/svg">
<g clip-path="url(#clip0_83_660)">
<rect x="1.5" y="1.5" width="41" height="41" rx="8.5" fill="#5C9AC9"/>
<rect x="1.5" y="1.5" width="41" height="41" rx="8.5" fill="black" fill-opacity="0.8"/>
<rect x="1.5" y="1.5" width="41" height="41" rx="8.5" stroke="#5C9AC9" stroke-width="3"/>
<rect x="1.5" y="1.5" width="41" height="41" rx="8.5" stroke="black" stroke-opacity="0.45" stroke-width="3"/>
<g opacity="0.1" filter="url(#filter0_f_83_660)">
<circle cx="4" cy="100" r="80" fill="#DC29DD"/>
</g>
<g clip-path="url(#clip1_83_660)">
<path d="M13.1831 8.71479C13.1832 8.86471 13.2428 9.00846 13.3488 9.11451C13.4547 9.22055 13.5985 9.28022 13.7484 9.28041H14.7115V11.4288H13.7484C13.6009 11.4326 13.4608 11.4938 13.3578 11.5995C13.2549 11.7051 13.1972 11.8468 13.1972 11.9943C13.1972 12.1418 13.2549 12.2835 13.3578 12.3891C13.4608 12.4947 13.6009 12.5559 13.7484 12.5597H14.7115V14.2081C14.7115 14.2739 14.6986 14.339 14.6735 14.3998C14.6483 14.4606 14.6114 14.5159 14.5649 14.5624C14.5184 14.609 14.4632 14.6459 14.4024 14.6711C14.3416 14.6963 14.2765 14.7092 14.2107 14.7092H12.5623V13.7462C12.5623 13.5961 12.5027 13.4523 12.3966 13.3462C12.2906 13.2401 12.1467 13.1805 11.9967 13.1805C11.8467 13.1805 11.7028 13.2401 11.5967 13.3462C11.4906 13.4523 11.4311 13.5961 11.4311 13.7462V14.7092H9.28264V13.7462C9.28457 13.6707 9.27137 13.5956 9.24382 13.5253C9.21628 13.455 9.17494 13.3909 9.12224 13.3369C9.06954 13.2828 9.00655 13.2399 8.93699 13.2105C8.86743 13.1812 8.79269 13.1661 8.71719 13.1661C8.6417 13.1661 8.56696 13.1812 8.4974 13.2105C8.42784 13.2399 8.36485 13.2828 8.31215 13.3369C8.25945 13.3909 8.21811 13.455 8.19057 13.5253C8.16302 13.5956 8.14982 13.6707 8.15175 13.7462V14.7092H6.50117C6.36828 14.7091 6.24087 14.6563 6.1469 14.5623C6.05293 14.4684 6.0001 14.341 6 14.2081V6.50117C6 6.36825 6.0528 6.24078 6.14679 6.14679C6.24078 6.0528 6.36825 6 6.50117 6H14.2092C14.275 6 14.3401 6.01297 14.4009 6.03816C14.4617 6.06335 14.5169 6.10027 14.5634 6.14681C14.6099 6.19336 14.6468 6.24861 14.672 6.30941C14.6971 6.37021 14.71 6.43538 14.71 6.50117V8.14879H13.7469C13.5971 8.14928 13.4537 8.20914 13.348 8.31524C13.2423 8.42134 13.183 8.56503 13.1831 8.71479Z" fill="#9722FF"/>
<path d="M23.0244 8.71479C23.0244 8.86474 23.0839 9.00855 23.1899 9.11461C23.2959 9.22068 23.4397 9.28032 23.5896 9.28041H24.5527V11.4288H23.5896C23.4422 11.4326 23.302 11.4938 23.1991 11.5995C23.0961 11.7051 23.0385 11.8468 23.0385 11.9943C23.0385 12.1418 23.0961 12.2835 23.1991 12.3891C23.302 12.4947 23.4422 12.5559 23.5896 12.5597H24.5527V14.2081C24.5527 14.3409 24.5 14.4683 24.4061 14.5623C24.3122 14.6563 24.1848 14.7091 24.0519 14.7092H16.3424C16.2766 14.7092 16.2115 14.6963 16.1507 14.6711C16.0899 14.6459 16.0347 14.609 15.9882 14.5624C15.9417 14.5159 15.9048 14.4606 15.8796 14.3998C15.8545 14.339 15.8416 14.2739 15.8416 14.2081V12.5597H16.8025C16.878 12.5616 16.9531 12.5485 17.0233 12.5209C17.0936 12.4934 17.1577 12.452 17.2118 12.3993C17.2658 12.3466 17.3088 12.2836 17.3381 12.2141C17.3675 12.1445 17.3826 12.0698 17.3826 11.9943C17.3826 11.9188 17.3675 11.844 17.3381 11.7745C17.3088 11.7049 17.2658 11.6419 17.2118 11.5892C17.1577 11.5365 17.0936 11.4952 17.0233 11.4676C16.9531 11.4401 16.878 11.4269 16.8025 11.4288H15.8416V9.28041H16.8025C16.878 9.28235 16.9532 9.26914 17.0235 9.24157C17.0938 9.21401 17.1579 9.17264 17.212 9.11991C17.2661 9.06718 17.3091 9.00415 17.3385 8.93454C17.3678 8.86493 17.383 8.79015 17.383 8.7146C17.383 8.63906 17.3678 8.56427 17.3385 8.49466C17.3091 8.42505 17.2661 8.36203 17.212 8.30929C17.1579 8.25656 17.0938 8.21519 17.0235 8.18763C16.9532 8.16006 16.878 8.14686 16.8025 8.14879H15.8416V6.50117C15.8415 6.43536 15.8544 6.37018 15.8795 6.30935C15.9047 6.24853 15.9416 6.19326 15.9881 6.1467C16.0346 6.10015 16.0898 6.06323 16.1506 6.03806C16.2114 6.01288 16.2766 5.99995 16.3424 6H24.0504C24.1162 6 24.1814 6.01297 24.2422 6.03816C24.303 6.06335 24.3582 6.10027 24.4047 6.14681C24.4512 6.19336 24.4881 6.24861 24.5132 6.30941C24.5384 6.37021 24.5513 6.43538 24.5512 6.50117V8.14879H23.5882C23.4384 8.14928 23.295 8.20914 23.1893 8.31524C23.0836 8.42135 23.0243 8.56503 23.0244 8.71479Z" fill="#DC29DD"/>
<path d="M34.3921 6.50117V14.2088C34.3921 14.2746 34.3792 14.3398 34.3541 14.4006C34.3289 14.4614 34.2921 14.5166 34.2455 14.5632C34.199 14.6097 34.1438 14.6466 34.083 14.6718C34.0222 14.697 33.9571 14.71 33.8913 14.71H32.2429V13.7469C32.2449 13.6714 32.2317 13.5963 32.2041 13.526C32.1766 13.4558 32.1352 13.3917 32.0825 13.3376C32.0298 13.2836 31.9669 13.2406 31.8973 13.2113C31.8277 13.1819 31.753 13.1668 31.6775 13.1668C31.602 13.1668 31.5273 13.1819 31.4577 13.2113C31.3881 13.2406 31.3251 13.2836 31.2725 13.3376C31.2198 13.3917 31.1784 13.4558 31.1509 13.526C31.1233 13.5963 31.1101 13.6714 31.1121 13.7469V14.71H28.9636V13.7469C28.9656 13.6714 28.9524 13.5963 28.9248 13.526C28.8973 13.4558 28.8559 13.3917 28.8032 13.3376C28.7505 13.2836 28.6876 13.2406 28.618 13.2113C28.5484 13.1819 28.4737 13.1668 28.3982 13.1668C28.3227 13.1668 28.248 13.1819 28.1784 13.2113C28.1088 13.2406 28.0458 13.2836 27.9931 13.3376C27.9405 13.3917 27.8991 13.4558 27.8716 13.526C27.844 13.5963 27.8308 13.6714 27.8328 13.7469V14.71H26.1844C26.0515 14.7099 25.9241 14.6571 25.8301 14.5631C25.7362 14.4691 25.6833 14.3417 25.6832 14.2088V12.5605H26.6463C26.7218 12.5624 26.7969 12.5492 26.8672 12.5216C26.9375 12.4941 27.0015 12.4528 27.0556 12.4001C27.1096 12.3474 27.1526 12.2844 27.182 12.2148C27.2113 12.1452 27.2264 12.0705 27.2264 11.995C27.2264 11.9195 27.2113 11.8448 27.182 11.7752C27.1526 11.7057 27.1096 11.6427 27.0556 11.59C27.0015 11.5373 26.9375 11.4959 26.8672 11.4684C26.7969 11.4408 26.7218 11.4276 26.6463 11.4296H25.6832V9.28115H26.6463C26.7939 9.27738 26.9341 9.21611 27.0371 9.11041C27.1402 9.00471 27.1978 8.86295 27.1978 8.71534C27.1978 8.56774 27.1402 8.42597 27.0371 8.32027C26.9341 8.21458 26.7939 8.15331 26.6463 8.14953H25.6832V6.50117C25.6832 6.36825 25.736 6.24078 25.83 6.14679C25.924 6.0528 26.0515 6 26.1844 6H33.8913C33.9571 6 34.0222 6.01297 34.083 6.03816C34.1438 6.06335 34.199 6.10027 34.2455 6.14681C34.2921 6.19336 34.3289 6.24861 34.3541 6.30941C34.3792 6.37021 34.3921 6.43538 34.3921 6.50117Z" fill="#27A2FD"/>
<path d="M14.71 16.3417V24.0497C14.71 24.1155 14.6971 24.1807 14.672 24.2415C14.6468 24.3023 14.6099 24.3575 14.5634 24.4041C14.5169 24.4506 14.4617 24.4875 14.4009 24.5127C14.3401 24.5379 14.275 24.5509 14.2092 24.5509H12.5608V23.5878C12.5608 23.4378 12.5012 23.2939 12.3952 23.1878C12.2891 23.0817 12.1452 23.0222 11.9952 23.0222C11.8452 23.0222 11.7013 23.0817 11.5952 23.1878C11.4892 23.2939 11.4296 23.4378 11.4296 23.5878V24.5509H9.28115V23.5878C9.28309 23.5123 9.26989 23.4372 9.24234 23.3669C9.21479 23.2966 9.17345 23.2326 9.12076 23.1785C9.06806 23.1244 9.00507 23.0815 8.93551 23.0521C8.86594 23.0228 8.79121 23.0077 8.71571 23.0077C8.64022 23.0077 8.56548 23.0228 8.49592 23.0521C8.42635 23.0815 8.36337 23.1244 8.31067 23.1785C8.25797 23.2326 8.21663 23.2966 8.18908 23.3669C8.16154 23.4372 8.14834 23.5123 8.15027 23.5878V24.5509H6.50117C6.36825 24.5509 6.24078 24.4981 6.14679 24.4041C6.0528 24.3101 6 24.1826 6 24.0497V16.3417C6.0002 16.2089 6.05307 16.0815 6.14703 15.9876C6.24099 15.8938 6.36835 15.841 6.50117 15.8409H8.14953V16.804C8.1533 16.9514 8.21453 17.0916 8.32016 17.1945C8.42579 17.2975 8.56746 17.3551 8.71497 17.3551C8.86248 17.3551 9.00415 17.2975 9.10978 17.1945C9.21541 17.0916 9.27664 16.9514 9.28041 16.804V15.8409H11.4288V16.804C11.4288 16.954 11.4884 17.0978 11.5945 17.2039C11.7006 17.31 11.8444 17.3696 11.9945 17.3696C12.1445 17.3696 12.2883 17.31 12.3944 17.2039C12.5005 17.0978 12.5601 16.954 12.5601 16.804V15.8409H14.2084C14.2743 15.8408 14.3395 15.8537 14.4003 15.8788C14.4612 15.9039 14.5165 15.9408 14.563 15.9873C14.6096 16.0338 14.6466 16.0891 14.6718 16.1499C14.697 16.2107 14.71 16.2759 14.71 16.3417Z" fill="#DC29DD"/>
<path d="M23.0244 18.5557C23.0243 18.6299 23.0389 18.7034 23.0673 18.772C23.0957 18.8406 23.1373 18.903 23.1898 18.9555C23.2423 19.008 23.3047 19.0496 23.3733 19.078C23.4419 19.1064 23.5154 19.121 23.5896 19.1209H24.5527V21.2693H23.5896C23.4422 21.2731 23.302 21.3343 23.1991 21.44C23.0961 21.5456 23.0385 21.6873 23.0385 21.8348C23.0385 21.9823 23.0961 22.124 23.1991 22.2296C23.302 22.3352 23.4422 22.3965 23.5896 22.4002H24.5527V24.0486C24.5528 24.1144 24.5399 24.1795 24.5147 24.2403C24.4896 24.3011 24.4527 24.3564 24.4062 24.4029C24.3597 24.4495 24.3044 24.4864 24.2437 24.5116C24.1829 24.5368 24.1177 24.5498 24.0519 24.5498H22.4006V23.5867C22.4025 23.5112 22.3893 23.4361 22.3618 23.3658C22.3342 23.2955 22.2929 23.2315 22.2402 23.1774C22.1875 23.1233 22.1245 23.0804 22.055 23.051C21.9854 23.0217 21.9107 23.0066 21.8352 23.0066C21.7597 23.0066 21.6849 23.0217 21.6154 23.051C21.5458 23.0804 21.4828 23.1233 21.4301 23.1774C21.3774 23.2315 21.3361 23.2955 21.3085 23.3658C21.281 23.4361 21.2678 23.5112 21.2697 23.5867V24.5498H19.1213V23.5867C19.1213 23.4367 19.0617 23.2928 18.9556 23.1867C18.8496 23.0806 18.7057 23.021 18.5557 23.021C18.4057 23.021 18.2618 23.0806 18.1557 23.1867C18.0496 23.2928 17.99 23.4367 17.99 23.5867V24.5498H16.3424C16.2766 24.5498 16.2114 24.5369 16.1506 24.5117C16.0898 24.4865 16.0346 24.4496 15.9881 24.4031C15.9416 24.3565 15.9047 24.3012 15.8795 24.2404C15.8544 24.1796 15.8415 24.1144 15.8416 24.0486V16.3417C15.8416 16.2089 15.8944 16.0815 15.9883 15.9876C16.0822 15.8936 16.2096 15.8409 16.3424 15.8409H24.0504C24.1832 15.841 24.3106 15.8938 24.4045 15.9877C24.4984 16.0816 24.5511 16.2089 24.5512 16.3417V17.99H23.5882C23.4384 17.9904 23.295 18.0502 23.1893 18.1563C23.0836 18.2623 23.0243 18.4059 23.0244 18.5557Z" fill="#27A2FD"/>
<path d="M34.3921 16.3417V24.0497C34.3922 24.1155 34.3792 24.1807 34.3541 24.2415C34.3289 24.3023 34.2921 24.3575 34.2456 24.4041C34.199 24.4506 34.1438 24.4875 34.083 24.5127C34.0223 24.5379 33.9571 24.5509 33.8913 24.5509H26.1833C26.0504 24.5509 25.9229 24.4981 25.8289 24.4041C25.7349 24.3101 25.6821 24.1826 25.6821 24.0497V22.4002H26.6452C26.7207 22.4022 26.7958 22.389 26.8661 22.3614C26.9364 22.3339 27.0004 22.2925 27.0545 22.2398C27.1086 22.1871 27.1515 22.1241 27.1809 22.0546C27.2102 21.985 27.2253 21.9103 27.2253 21.8348C27.2253 21.7593 27.2102 21.6846 27.1809 21.615C27.1515 21.5454 27.1086 21.4824 27.0545 21.4297C27.0004 21.377 26.9364 21.3357 26.8661 21.3082C26.7958 21.2806 26.7207 21.2674 26.6452 21.2693H25.6821V19.1209H26.6452C26.7207 19.1229 26.7958 19.1097 26.8661 19.0821C26.9364 19.0546 27.0004 19.0132 27.0545 18.9605C27.1086 18.9078 27.1515 18.8448 27.1809 18.7753C27.2102 18.7057 27.2253 18.631 27.2253 18.5555C27.2253 18.48 27.2102 18.4053 27.1809 18.3357C27.1515 18.2661 27.1086 18.2031 27.0545 18.1504C27.0004 18.0977 26.9364 18.0564 26.8661 18.0289C26.7958 18.0013 26.7207 17.9881 26.6452 17.99H25.6821V16.3417C25.6823 16.2089 25.7352 16.0815 25.8292 15.9876C25.9231 15.8938 26.0505 15.841 26.1833 15.8409H27.8317V16.804C27.8354 16.9514 27.8967 17.0916 28.0023 17.1945C28.1079 17.2975 28.2496 17.3551 28.3971 17.3551C28.5446 17.3551 28.6863 17.2975 28.7919 17.1945C28.8975 17.0916 28.9588 16.9514 28.9625 16.804V15.8409H31.111V16.804C31.1147 16.9514 31.176 17.0916 31.2816 17.1945C31.3872 17.2975 31.5289 17.3551 31.6764 17.3551C31.8239 17.3551 31.9656 17.2975 32.0712 17.1945C32.1768 17.0916 32.2381 16.9514 32.2418 16.804V15.8409H33.8902C33.9561 15.8407 34.0213 15.8536 34.0822 15.8787C34.1431 15.9038 34.1984 15.9407 34.245 15.9872C34.2917 16.0337 34.3286 16.0889 34.3539 16.1498C34.3791 16.2106 34.3921 16.2758 34.3921 16.3417Z" fill="#3344FF"/>
<path d="M13.1831 28.3969C13.1832 28.5468 13.2428 28.6906 13.3488 28.7966C13.4547 28.9027 13.5985 28.9623 13.7484 28.9625H14.7115V31.111H13.7484C13.5984 31.111 13.4545 31.1706 13.3484 31.2766C13.2424 31.3827 13.1828 31.5266 13.1828 31.6766C13.1828 31.8266 13.2424 31.9705 13.3484 32.0765C13.4545 32.1826 13.5984 32.2422 13.7484 32.2422H14.7115V33.8906C14.7115 33.9564 14.6986 34.0215 14.6735 34.0823C14.6483 34.1431 14.6114 34.1984 14.5649 34.2449C14.5184 34.2915 14.4632 34.3284 14.4024 34.3536C14.3416 34.3788 14.2765 34.3917 14.2107 34.3917H6.50117C6.36828 34.3916 6.24087 34.3388 6.1469 34.2448C6.05293 34.1509 6.0001 34.0235 6 33.8906V26.1833C6 26.0504 6.0528 25.9229 6.14679 25.8289C6.24078 25.7349 6.36825 25.6821 6.50117 25.6821H8.14953V26.6434C8.1476 26.7188 8.1608 26.7939 8.18834 26.8642C8.21589 26.9345 8.25723 26.9986 8.30993 27.0526C8.36263 27.1067 8.42561 27.1497 8.49518 27.179C8.56474 27.2083 8.63947 27.2235 8.71497 27.2235C8.79047 27.2235 8.8652 27.2083 8.93477 27.179C9.00433 27.1497 9.06732 27.1067 9.12002 27.0526C9.17271 26.9986 9.21405 26.9345 9.2416 26.8642C9.26915 26.7939 9.28235 26.7188 9.28041 26.6434V25.6821H11.4288V26.6434C11.4288 26.7934 11.4884 26.9372 11.5945 27.0433C11.7006 27.1494 11.8444 27.209 11.9945 27.209C12.1445 27.209 12.2883 27.1494 12.3944 27.0433C12.5005 26.9372 12.5601 26.7934 12.5601 26.6434V25.6821H14.2084C14.2742 25.6821 14.3394 25.6951 14.4002 25.7203C14.461 25.7455 14.5162 25.7824 14.5627 25.8289C14.6092 25.8755 14.6461 25.9307 14.6712 25.9915C14.6964 26.0523 14.7093 26.1175 14.7092 26.1833V27.8309H13.7462C13.5966 27.8317 13.4534 27.8917 13.3479 27.9977C13.2424 28.1038 13.1831 28.2473 13.1831 28.3969Z" fill="#9722FF"/>
<path d="M24.5512 26.1833V33.8909C24.5512 34.0238 24.4985 34.1512 24.4046 34.2452C24.3107 34.3392 24.1833 34.392 24.0504 34.3921H16.3424C16.2766 34.3921 16.2115 34.3792 16.1507 34.354C16.0899 34.3288 16.0347 34.2918 15.9882 34.2453C15.9417 34.1988 15.9048 34.1435 15.8796 34.0827C15.8545 34.0219 15.8416 33.9567 15.8416 33.8909V32.2426H16.8025C16.8768 32.2426 16.9503 32.228 17.0189 32.1995C17.0876 32.1711 17.1499 32.1294 17.2024 32.0769C17.255 32.0244 17.2966 31.962 17.3251 31.8934C17.3535 31.8248 17.3681 31.7512 17.3681 31.677C17.3681 31.6027 17.3535 31.5291 17.3251 31.4605C17.2966 31.3919 17.255 31.3295 17.2024 31.277C17.1499 31.2245 17.0876 31.1828 17.0189 31.1544C16.9503 31.126 16.8768 31.1113 16.8025 31.1113H15.8416V28.9629H16.8025C16.878 28.9648 16.9532 28.9516 17.0235 28.9241C17.0938 28.8965 17.1579 28.8551 17.212 28.8024C17.2661 28.7497 17.3091 28.6867 17.3385 28.617C17.3678 28.5474 17.383 28.4727 17.383 28.3971C17.383 28.3216 17.3678 28.2468 17.3385 28.1772C17.3091 28.1076 17.2661 28.0445 17.212 27.9918C17.1579 27.9391 17.0938 27.8977 17.0235 27.8701C16.9532 27.8426 16.878 27.8294 16.8025 27.8313H15.8416V26.1833C15.8415 26.1175 15.8544 26.0523 15.8795 25.9915C15.9047 25.9307 15.9416 25.8754 15.9881 25.8288C16.0346 25.7823 16.0898 25.7454 16.1506 25.7202C16.2114 25.695 16.2766 25.6821 16.3424 25.6821H17.9904V26.6434C17.9904 26.7176 18.005 26.7912 18.0335 26.8598C18.0619 26.9284 18.1036 26.9908 18.1561 27.0433C18.2086 27.0958 18.271 27.1375 18.3396 27.1659C18.4082 27.1944 18.4818 27.209 18.556 27.209C18.6303 27.209 18.7039 27.1944 18.7725 27.1659C18.8411 27.1375 18.9035 27.0958 18.956 27.0433C19.0085 26.9908 19.0502 26.9284 19.0786 26.8598C19.107 26.7912 19.1217 26.7176 19.1217 26.6434V25.6821H21.2701V26.6434C21.2682 26.7188 21.2814 26.7939 21.3089 26.8642C21.3364 26.9345 21.3778 26.9986 21.4305 27.0526C21.4832 27.1067 21.5462 27.1497 21.6157 27.179C21.6853 27.2083 21.76 27.2235 21.8355 27.2235C21.911 27.2235 21.9858 27.2083 22.0553 27.179C22.1249 27.1497 22.1879 27.1067 22.2406 27.0526C22.2933 26.9986 22.3346 26.9345 22.3622 26.8642C22.3897 26.7939 22.4029 26.7188 22.401 26.6434V25.6821H24.0493C24.1152 25.682 24.1805 25.6948 24.2414 25.72C24.3023 25.7451 24.3577 25.782 24.4043 25.8285C24.4509 25.8751 24.4879 25.9304 24.5131 25.9913C24.5383 26.0522 24.5513 26.1174 24.5512 26.1833Z" fill="#3344FF"/>
<path d="M31.4867 26.0359L26.0366 31.486C25.8409 31.6818 25.8409 31.9991 26.0366 32.1948L31.4867 37.6449C31.6824 37.8407 31.9998 37.8407 32.1955 37.6449L37.6456 32.1948C37.8413 31.9991 37.8413 31.6818 37.6456 31.486L32.1955 26.0359C31.9998 25.8402 31.6824 25.8402 31.4867 26.0359Z" fill="#9722FF"/>
</g>
</g>
<rect x="1" y="1" width="42" height="42" rx="9" stroke="#5C9AC9" stroke-width="2"/>
<rect x="1" y="1" width="42" height="42" rx="9" stroke="black" stroke-opacity="0.6" stroke-width="2"/>
<defs>
<filter id="filter0_f_83_660" x="-140" y="-44" width="288" height="288" filterUnits="userSpaceOnUse" color-interpolation-filters="sRGB">
<feFlood flood-opacity="0" result="BackgroundImageFix"/>
<feBlend mode="normal" in="SourceGraphic" in2="BackgroundImageFix" result="shape"/>
<feGaussianBlur stdDeviation="32" result="effect1_foregroundBlur_83_660"/>
</filter>
<clipPath id="clip0_83_660">
<rect width="44" height="44" rx="10" fill="white"/>
</clipPath>
<clipPath id="clip1_83_660">
<rect width="32" height="32" fill="white" transform="translate(6 6)"/>
</clipPath>
</defs>
</svg>
