<svg width="80" height="80" viewBox="0 0 80 80" fill="none" xmlns="http://www.w3.org/2000/svg">
<g clip-path="url(#clip0_83_657)">
<rect x="1.5" y="1.5" width="77" height="77" rx="8.5" fill="#5C9AC9"/>
<rect x="1.5" y="1.5" width="77" height="77" rx="8.5" fill="black" fill-opacity="0.8"/>
<rect x="1.5" y="1.5" width="77" height="77" rx="8.5" stroke="#5C9AC9" stroke-width="3"/>
<rect x="1.5" y="1.5" width="77" height="77" rx="8.5" stroke="black" stroke-opacity="0.45" stroke-width="3"/>
<g opacity="0.1" filter="url(#filter0_f_83_657)">
<circle cx="40" cy="100" r="80" fill="#DC29DD"/>
</g>
<g clip-path="url(#clip1_83_657)">
<path d="M22.3663 13.4296C22.3665 13.7294 22.4856 14.0169 22.6975 14.229C22.9095 14.4411 23.1969 14.5604 23.4968 14.5608H25.4229V18.8577H23.4968C23.2019 18.8652 22.9216 18.9877 22.7156 19.1989C22.5097 19.4102 22.3945 19.6935 22.3945 19.9885C22.3945 20.2836 22.5097 20.5669 22.7156 20.7782C22.9216 20.9894 23.2019 21.1119 23.4968 21.1194H25.4229V24.4161C25.423 24.5477 25.3972 24.6781 25.3469 24.7997C25.2966 24.9213 25.2229 25.0318 25.1298 25.1249C25.0368 25.218 24.9264 25.2918 24.8048 25.3422C24.6832 25.3926 24.5529 25.4185 24.4213 25.4185H21.1246V23.4923C21.1246 23.1923 21.0054 22.9046 20.7933 22.6924C20.5811 22.4803 20.2934 22.3611 19.9934 22.3611C19.6933 22.3611 19.4056 22.4803 19.1934 22.6924C18.9813 22.9046 18.8621 23.1923 18.8621 23.4923V25.4185H14.5653V23.4923C14.5691 23.3414 14.5427 23.1912 14.4876 23.0506C14.4326 22.91 14.3499 22.7819 14.2445 22.6738C14.1391 22.5656 14.0131 22.4797 13.874 22.421C13.7349 22.3624 13.5854 22.3321 13.4344 22.3321C13.2834 22.3321 13.1339 22.3624 12.9948 22.421C12.8557 22.4797 12.7297 22.5656 12.6243 22.6738C12.5189 22.7819 12.4362 22.91 12.3811 23.0506C12.326 23.1912 12.2996 23.3414 12.3035 23.4923V25.4185H9.00235C8.73657 25.4183 8.48173 25.3126 8.2938 25.1247C8.10586 24.9368 8.0002 24.6819 8 24.4161V9.00235C8 8.73651 8.1056 8.48156 8.29358 8.29358C8.48156 8.1056 8.73651 8 9.00235 8H24.4184C24.55 8 24.6803 8.02593 24.8018 8.07631C24.9234 8.1267 25.0339 8.20054 25.1269 8.29363C25.2199 8.38671 25.2937 8.49722 25.3439 8.61882C25.3942 8.74043 25.4201 8.87075 25.42 9.00235V12.2976H23.4938C23.1943 12.2986 22.9074 12.4183 22.696 12.6305C22.4846 12.8427 22.3661 13.1301 22.3663 13.4296Z" fill="#9722FF"/>
<path d="M42.0488 13.4296C42.0488 13.7295 42.1679 14.0171 42.3798 14.2292C42.5918 14.4414 42.8794 14.5606 43.1793 14.5608H45.1054V18.8577H43.1793C42.8844 18.8652 42.6041 18.9877 42.3981 19.1989C42.1922 19.4102 42.077 19.6935 42.077 19.9885C42.077 20.2836 42.1922 20.5669 42.3981 20.7782C42.6041 20.9894 42.8844 21.1119 43.1793 21.1194H45.1054V24.4161C45.1054 24.6819 44.9999 24.9367 44.8121 25.1247C44.6243 25.3126 44.3696 25.4183 44.1038 25.4185H28.6849C28.5533 25.4185 28.423 25.3926 28.3014 25.3422C28.1798 25.2918 28.0694 25.218 27.9764 25.1249C27.8833 25.0318 27.8096 24.9213 27.7593 24.7997C27.709 24.6781 27.6832 24.5477 27.6833 24.4161V21.1194H29.605C29.7559 21.1233 29.9061 21.0969 30.0467 21.0418C30.1873 20.9867 30.3154 20.904 30.4235 20.7986C30.5317 20.6932 30.6176 20.5673 30.6763 20.4281C30.7349 20.289 30.7652 20.1395 30.7652 19.9885C30.7652 19.8376 30.7349 19.6881 30.6763 19.549C30.6176 19.4098 30.5317 19.2839 30.4235 19.1785C30.3154 19.0731 30.1873 18.9904 30.0467 18.9353C29.9061 18.8802 29.7559 18.8538 29.605 18.8577H27.6833V14.5608H29.605C29.756 14.5647 29.9063 14.5383 30.047 14.4831C30.1877 14.428 30.3159 14.3453 30.4241 14.2398C30.5323 14.1344 30.6183 14.0083 30.677 13.8691C30.7357 13.7299 30.7659 13.5803 30.7659 13.4292C30.7659 13.2781 30.7357 13.1285 30.677 12.9893C30.6183 12.8501 30.5323 12.7241 30.4241 12.6186C30.3159 12.5131 30.1877 12.4304 30.047 12.3753C29.9063 12.3201 29.756 12.2937 29.605 12.2976H27.6833V9.00235C27.6831 8.87073 27.7088 8.74036 27.7591 8.61871C27.8093 8.49706 27.8831 8.38651 27.9761 8.29341C28.0692 8.2003 28.1797 8.12646 28.3013 8.07612C28.4229 8.02577 28.5532 7.9999 28.6849 8H44.1009C44.2325 8 44.3628 8.02593 44.4843 8.07631C44.6059 8.1267 44.7164 8.20054 44.8094 8.29363C44.9024 8.38671 44.9762 8.49722 45.0265 8.61882C45.0767 8.74043 45.1026 8.87075 45.1025 9.00235V12.2976H43.1763C42.8768 12.2986 42.5899 12.4183 42.3785 12.6305C42.1672 12.8427 42.0486 13.1301 42.0488 13.4296Z" fill="#DC29DD"/>
<path d="M64.7842 9.00235V24.4176C64.7843 24.5492 64.7585 24.6795 64.7082 24.8012C64.6579 24.9228 64.5841 25.0333 64.4911 25.1264C64.3981 25.2194 64.2876 25.2933 64.166 25.3437C64.0445 25.394 63.9142 25.42 63.7826 25.42H60.4859V23.4938C60.4897 23.3429 60.4633 23.1927 60.4082 23.0521C60.3531 22.9115 60.2705 22.7834 60.1651 22.6752C60.0597 22.5671 59.9337 22.4812 59.7946 22.4225C59.6554 22.3638 59.506 22.3336 59.355 22.3336C59.204 22.3336 59.0545 22.3638 58.9154 22.4225C58.7763 22.4812 58.6503 22.5671 58.5449 22.6752C58.4395 22.7834 58.3568 22.9115 58.3017 23.0521C58.2466 23.1927 58.2202 23.3429 58.2241 23.4938V25.42H53.9273V23.4938C53.9311 23.3429 53.9047 23.1927 53.8496 23.0521C53.7945 22.9115 53.7119 22.7834 53.6065 22.6752C53.5011 22.5671 53.3751 22.4812 53.236 22.4225C53.0968 22.3638 52.9474 22.3336 52.7964 22.3336C52.6454 22.3336 52.4959 22.3638 52.3568 22.4225C52.2177 22.4812 52.0917 22.5671 51.9863 22.6752C51.8809 22.7834 51.7982 22.9115 51.7431 23.0521C51.688 23.1927 51.6616 23.3429 51.6655 23.4938V25.42H48.3688C48.103 25.4198 47.8482 25.3141 47.6602 25.1262C47.4723 24.9382 47.3666 24.6834 47.3664 24.4176V21.1209H49.2926C49.4436 21.1248 49.5937 21.0984 49.7343 21.0433C49.8749 20.9882 50.003 20.9055 50.1112 20.8001C50.2193 20.6947 50.3052 20.5688 50.3639 20.4296C50.4226 20.2905 50.4528 20.141 50.4528 19.99C50.4528 19.839 50.4226 19.6896 50.3639 19.5504C50.3052 19.4113 50.2193 19.2853 50.1112 19.1799C50.003 19.0746 49.8749 18.9919 49.7343 18.9368C49.5937 18.8817 49.4436 18.8553 49.2926 18.8591H47.3664V14.5623H49.2926C49.5877 14.5548 49.8682 14.4322 50.0743 14.2208C50.2803 14.0094 50.3956 13.7259 50.3956 13.4307C50.3956 13.1355 50.2803 12.8519 50.0743 12.6405C49.8682 12.4292 49.5877 12.3066 49.2926 12.2991H47.3664V9.00235C47.3664 8.73651 47.472 8.48156 47.66 8.29358C47.848 8.1056 48.1029 8 48.3688 8H63.7826C63.9142 8 64.0445 8.02593 64.166 8.07631C64.2876 8.1267 64.3981 8.20054 64.4911 8.29363C64.5841 8.38671 64.6579 8.49722 64.7082 8.61882C64.7585 8.74043 64.7843 8.87075 64.7842 9.00235Z" fill="#27A2FD"/>
<path d="M25.42 28.6834V44.0994C25.4201 44.231 25.3942 44.3613 25.3439 44.4829C25.2937 44.6045 25.2199 44.715 25.1269 44.8081C25.0339 44.9012 24.9234 44.975 24.8018 45.0254C24.6803 45.0758 24.55 45.1017 24.4184 45.1017H21.1217V43.1756C21.1217 42.8755 21.0025 42.5878 20.7903 42.3756C20.5782 42.1635 20.2904 42.0443 19.9904 42.0443C19.6904 42.0443 19.4026 42.1635 19.1905 42.3756C18.9783 42.5878 18.8591 42.8755 18.8591 43.1756V45.1017H14.5623V43.1756C14.5662 43.0246 14.5398 42.8744 14.4847 42.7338C14.4296 42.5933 14.3469 42.4651 14.2415 42.357C14.1361 42.2489 14.0101 42.1629 13.871 42.1043C13.7319 42.0456 13.5824 42.0154 13.4314 42.0154C13.2804 42.0154 13.131 42.0456 12.9918 42.1043C12.8527 42.1629 12.7267 42.2489 12.6213 42.357C12.5159 42.4651 12.4333 42.5933 12.3782 42.7338C12.3231 42.8744 12.2967 43.0246 12.3005 43.1756V45.1017H9.00235C8.73651 45.1017 8.48156 44.9961 8.29358 44.8082C8.1056 44.6202 8 44.3652 8 44.0994V28.6834C8.00039 28.4177 8.10615 28.1631 8.29406 27.9753C8.48197 27.7875 8.7367 27.682 9.00235 27.6818H12.2991V29.6079C12.3066 29.9029 12.4291 30.1832 12.6403 30.3891C12.8516 30.595 13.1349 30.7102 13.4299 30.7102C13.725 30.7102 14.0083 30.595 14.2196 30.3891C14.4308 30.1832 14.5533 29.9029 14.5608 29.6079V27.6818H18.8577V29.6079C18.8577 29.908 18.9769 30.1957 19.189 30.4078C19.4012 30.62 19.6889 30.7392 19.9889 30.7392C20.2889 30.7392 20.5767 30.62 20.7888 30.4078C21.001 30.1957 21.1202 29.908 21.1202 29.6079V27.6818H24.4169C24.5485 27.6816 24.6789 27.7073 24.8006 27.7576C24.9223 27.8078 25.0329 27.8816 25.1261 27.9746C25.2193 28.0676 25.2932 28.1781 25.3436 28.2997C25.394 28.4213 25.42 28.5517 25.42 28.6834Z" fill="#DC29DD"/>
<path d="M42.0488 33.1113C42.0487 33.2598 42.0778 33.4069 42.1346 33.5441C42.1914 33.6813 42.2747 33.8059 42.3797 33.9109C42.4847 34.0159 42.6093 34.0992 42.7465 34.156C42.8837 34.2128 43.0308 34.2419 43.1793 34.2418H45.1054V38.5387H43.1793C42.8844 38.5462 42.6041 38.6687 42.3981 38.88C42.1922 39.0912 42.077 39.3746 42.077 39.6696C42.077 39.9646 42.1922 40.2479 42.3981 40.4592C42.6041 40.6704 42.8844 40.7929 43.1793 40.8005H45.1054V44.0972C45.1055 44.2288 45.0797 44.3591 45.0294 44.4807C44.9791 44.6023 44.9054 44.7128 44.8123 44.8059C44.7193 44.899 44.6089 44.9728 44.4873 45.0232C44.3657 45.0736 44.2354 45.0995 44.1038 45.0995H40.8012V43.1733C40.8051 43.0224 40.7787 42.8722 40.7236 42.7316C40.6685 42.591 40.5858 42.4629 40.4804 42.3548C40.375 42.2467 40.249 42.1607 40.1099 42.102C39.9708 42.0434 39.8213 42.0131 39.6703 42.0131C39.5193 42.0131 39.3699 42.0434 39.2307 42.102C39.0916 42.1607 38.9656 42.2467 38.8602 42.3548C38.7548 42.4629 38.6722 42.591 38.6171 42.7316C38.562 42.8722 38.5356 43.0224 38.5394 43.1733V45.0995H34.2426V43.1733C34.2426 42.8733 34.1234 42.5856 33.9113 42.3734C33.6991 42.1613 33.4114 42.0421 33.1113 42.0421C32.8113 42.0421 32.5236 42.1613 32.3114 42.3734C32.0993 42.5856 31.9801 42.8733 31.9801 43.1733V45.0995H28.6849C28.5532 45.0996 28.4229 45.0737 28.3013 45.0234C28.1797 44.9731 28.0692 44.8992 27.9761 44.8061C27.8831 44.713 27.8093 44.6025 27.7591 44.4808C27.7088 44.3592 27.6831 44.2288 27.6833 44.0972V28.6834C27.6833 28.4177 27.7888 28.163 27.9766 27.9751C28.1645 27.7873 28.4192 27.6818 28.6849 27.6818H44.1009C44.3665 27.682 44.6211 27.7875 44.8089 27.9753C44.9967 28.1631 45.1023 28.4178 45.1025 28.6834V31.9801H43.1763C42.8769 31.9809 42.59 32.1004 42.3786 32.3125C42.1672 32.5246 42.0486 32.8119 42.0488 33.1113Z" fill="#27A2FD"/>
<path d="M64.7842 28.6834V44.0994C64.7843 44.231 64.7585 44.3613 64.7082 44.4829C64.6579 44.6045 64.5841 44.715 64.4911 44.8081C64.3981 44.9012 64.2876 44.975 64.1661 45.0254C64.0445 45.0758 63.9142 45.1017 63.7826 45.1017H48.3666C48.1007 45.1017 47.8458 44.9961 47.6578 44.8082C47.4698 44.6202 47.3642 44.3652 47.3642 44.0994V40.8005H49.2904C49.4414 40.8043 49.5915 40.7779 49.7321 40.7228C49.8727 40.6677 50.0008 40.5851 50.109 40.4797C50.2171 40.3743 50.303 40.2483 50.3617 40.1092C50.4204 39.97 50.4506 39.8206 50.4506 39.6696C50.4506 39.5186 50.4204 39.3691 50.3617 39.23C50.303 39.0909 50.2171 38.9649 50.109 38.8595C50.0008 38.7541 49.8727 38.6714 49.7321 38.6163C49.5915 38.5612 49.4414 38.5348 49.2904 38.5387H47.3642V34.2419H49.2904C49.4414 34.2457 49.5915 34.2193 49.7321 34.1642C49.8727 34.1091 50.0008 34.0264 50.109 33.9211C50.2171 33.8157 50.303 33.6897 50.3617 33.5506C50.4204 33.4114 50.4506 33.262 50.4506 33.111C50.4506 32.96 50.4204 32.8105 50.3617 32.6714C50.303 32.5322 50.2171 32.4063 50.109 32.3009C50.0008 32.1955 49.8727 32.1128 49.7321 32.0577C49.5915 32.0026 49.4414 31.9762 49.2904 31.9801H47.3642V28.6834C47.3646 28.4177 47.4704 28.1631 47.6583 27.9753C47.8462 27.7875 48.1009 27.682 48.3666 27.6818H51.6633V29.6079C51.6708 29.9029 51.7933 30.1832 52.0046 30.3891C52.2158 30.595 52.4992 30.7102 52.7942 30.7102C53.0892 30.7102 53.3725 30.595 53.5838 30.3891C53.7951 30.1832 53.9175 29.9029 53.9251 29.6079V27.6818H58.2219V29.6079C58.2295 29.9029 58.3519 30.1832 58.5632 30.3891C58.7744 30.595 59.0578 30.7102 59.3528 30.7102C59.6478 30.7102 59.9311 30.595 60.1424 30.3891C60.3537 30.1832 60.4761 29.9029 60.4837 29.6079V27.6818H63.7804C63.9121 27.6815 64.0426 27.7072 64.1644 27.7574C64.2861 27.8076 64.3968 27.8813 64.4901 27.9743C64.5833 28.0674 64.6573 28.1779 64.7078 28.2996C64.7582 28.4212 64.7842 28.5517 64.7842 28.6834Z" fill="#3344FF"/>
<path d="M22.3663 52.7938C22.3665 53.0937 22.4856 53.3812 22.6975 53.5933C22.9095 53.8053 23.1969 53.9247 23.4968 53.9251H25.4229V58.2219H23.4968C23.1967 58.2219 22.909 58.3411 22.6969 58.5532C22.4847 58.7654 22.3655 59.0531 22.3655 59.3532C22.3655 59.6532 22.4847 59.9409 22.6969 60.1531C22.909 60.3652 23.1967 60.4844 23.4968 60.4844H25.4229V63.7811C25.423 63.9127 25.3972 64.0431 25.3469 64.1647C25.2966 64.2863 25.2229 64.3968 25.1298 64.4899C25.0368 64.5829 24.9264 64.6568 24.8048 64.7072C24.6832 64.7575 24.5529 64.7835 24.4213 64.7835H9.00235C8.73657 64.7833 8.48173 64.6776 8.2938 64.4897C8.10586 64.3017 8.0002 64.0469 8 63.7811V48.3666C8 48.1008 8.1056 47.8458 8.29358 47.6578C8.48156 47.4699 8.73651 47.3642 9.00235 47.3642H12.2991V49.2867C12.2952 49.4377 12.3216 49.5878 12.3767 49.7284C12.4318 49.869 12.5145 49.9971 12.6199 50.1053C12.7253 50.2134 12.8512 50.2993 12.9904 50.358C13.1295 50.4167 13.2789 50.4469 13.4299 50.4469C13.5809 50.4469 13.7304 50.4167 13.8695 50.358C14.0087 50.2993 14.1346 50.2134 14.24 50.1053C14.3454 49.9971 14.4281 49.869 14.4832 49.7284C14.5383 49.5878 14.5647 49.4377 14.5608 49.2867V47.3642H18.8577V49.2867C18.8577 49.5867 18.9769 49.8745 19.189 50.0866C19.4012 50.2988 19.6889 50.418 19.9889 50.418C20.2889 50.418 20.5767 50.2988 20.7888 50.0866C21.001 49.8745 21.1202 49.5867 21.1202 49.2867V47.3642H24.4169C24.5485 47.3642 24.6788 47.3902 24.8004 47.4406C24.9219 47.4909 25.0324 47.5648 25.1254 47.6579C25.2184 47.751 25.2922 47.8615 25.3425 47.9831C25.3928 48.1047 25.4186 48.235 25.4185 48.3666V51.6618H23.4923C23.1931 51.6634 22.9067 51.7833 22.6957 51.9955C22.4847 52.2076 22.3663 52.4946 22.3663 52.7938Z" fill="#9722FF"/>
<path d="M45.1025 48.3666V63.7819C45.1025 64.0476 44.997 64.3024 44.8092 64.4904C44.6214 64.6783 44.3666 64.784 44.1009 64.7842H28.6849C28.5533 64.7842 28.423 64.7583 28.3014 64.7079C28.1798 64.6575 28.0694 64.5837 27.9764 64.4906C27.8833 64.3975 27.8096 64.287 27.7593 64.1654C27.709 64.0438 27.6832 63.9135 27.6833 63.7819V60.4852H29.605C29.7535 60.4852 29.9006 60.4559 30.0379 60.3991C30.1751 60.3422 30.2998 60.2589 30.4049 60.1538C30.5099 60.0488 30.5933 59.9241 30.6501 59.7868C30.707 59.6496 30.7362 59.5025 30.7362 59.3539C30.7362 59.2053 30.707 59.0582 30.6501 58.921C30.5933 58.7837 30.5099 58.659 30.4049 58.554C30.2998 58.4489 30.1751 58.3656 30.0379 58.3088C29.9006 58.2519 29.7535 58.2227 29.605 58.2227H27.6833V53.9258H29.605C29.756 53.9297 29.9063 53.9033 30.047 53.8481C30.1877 53.793 30.3159 53.7103 30.4241 53.6048C30.5323 53.4993 30.6183 53.3733 30.677 53.2341C30.7357 53.0948 30.7659 52.9453 30.7659 52.7942C30.7659 52.6431 30.7357 52.4935 30.677 52.3543C30.6183 52.2151 30.5323 52.089 30.4241 51.9836C30.3159 51.8781 30.1877 51.7954 30.047 51.7402C29.9063 51.6851 29.756 51.6587 29.605 51.6626H27.6833V48.3666C27.6831 48.235 27.7088 48.1046 27.7591 47.983C27.8093 47.8613 27.8831 47.7508 27.9761 47.6577C28.0692 47.5645 28.1797 47.4907 28.3013 47.4404C28.4229 47.39 28.5532 47.3641 28.6849 47.3642H31.9808V49.2867C31.9808 49.4353 32.0101 49.5824 32.0669 49.7196C32.1238 49.8569 32.2071 49.9816 32.3122 50.0866C32.4172 50.1917 32.5419 50.275 32.6792 50.3319C32.8164 50.3887 32.9635 50.418 33.1121 50.418C33.2606 50.418 33.4077 50.3887 33.545 50.3319C33.6822 50.275 33.807 50.1917 33.912 50.0866C34.017 49.9816 34.1004 49.8569 34.1572 49.7196C34.2141 49.5824 34.2433 49.4353 34.2433 49.2867V47.3642H38.5402V49.2867C38.5363 49.4377 38.5627 49.5878 38.6178 49.7284C38.6729 49.869 38.7556 49.9972 38.861 50.1053C38.9664 50.2134 39.0923 50.2993 39.2315 50.358C39.3706 50.4167 39.5201 50.4469 39.6711 50.4469C39.8221 50.4469 39.9715 50.4167 40.1107 50.358C40.2498 50.2993 40.3758 50.2134 40.4811 50.1053C40.5865 49.9972 40.6692 49.869 40.7243 49.7284C40.7794 49.5878 40.8058 49.4377 40.8019 49.2867V47.3642H44.0987C44.2304 47.364 44.361 47.3897 44.4828 47.4399C44.6046 47.4902 44.7153 47.564 44.8086 47.6571C44.9019 47.7502 44.9758 47.8608 45.0262 47.9826C45.0767 48.1043 45.1026 48.2348 45.1025 48.3666Z" fill="#3344FF"/>
<path d="M58.9734 48.0718L48.0732 58.9721C47.6818 59.3635 47.6818 59.9982 48.0732 60.3896L58.9735 71.2898C59.3649 71.6813 59.9995 71.6813 60.391 71.2898L71.2912 60.3896C71.6827 59.9982 71.6827 59.3635 71.2912 58.9721L60.391 48.0718C59.9995 47.6804 59.3649 47.6804 58.9734 48.0718Z" fill="#9722FF"/>
</g>
</g>
<rect x="1" y="1" width="78" height="78" rx="9" stroke="#5C9AC9" stroke-width="2"/>
<rect x="1" y="1" width="78" height="78" rx="9" stroke="black" stroke-opacity="0.6" stroke-width="2"/>
<defs>
<filter id="filter0_f_83_657" x="-104" y="-44" width="288" height="288" filterUnits="userSpaceOnUse" color-interpolation-filters="sRGB">
<feFlood flood-opacity="0" result="BackgroundImageFix"/>
<feBlend mode="normal" in="SourceGraphic" in2="BackgroundImageFix" result="shape"/>
<feGaussianBlur stdDeviation="32" result="effect1_foregroundBlur_83_657"/>
</filter>
<clipPath id="clip0_83_657">
<rect width="80" height="80" rx="10" fill="white"/>
</clipPath>
<clipPath id="clip1_83_657">
<rect width="64" height="64" fill="white" transform="translate(8 8)"/>
</clipPath>
</defs>
</svg>
