<svg width="80" height="80" viewBox="0 0 80 80" fill="none" xmlns="http://www.w3.org/2000/svg">
<g clip-path="url(#clip0_157_629)">
<rect x="1.5" y="1.5" width="77" height="77" rx="8.5" fill="#F15F2C"/>
<rect x="1.5" y="1.5" width="77" height="77" rx="8.5" stroke="#F15F2C" stroke-width="3"/>
<rect x="1.5" y="1.5" width="77" height="77" rx="8.5" stroke="black" stroke-opacity="0.3" stroke-width="3"/>
<g opacity="0.1" filter="url(#filter0_f_157_629)">
<circle cx="40" cy="100" r="80" fill="#242B2C"/>
</g>
<path d="M14.7158 46.1411L25.7085 8.45996H42.6022L39.1965 20.1415C39.1628 20.2082 39.1291 20.275 39.0954 20.3417L30.1258 51.1809H38.4884C34.9815 59.8252 32.2502 66.6004 30.2944 71.5067C14.8506 71.3398 10.5345 60.3925 14.3111 47.4428M30.3619 71.54L50.7288 42.5365H42.0964L49.616 23.9463C62.4971 25.2813 68.5667 35.3274 64.9924 47.4762C61.182 60.5261 45.7382 71.54 30.6991 71.54C30.5642 71.54 30.463 71.54 30.3619 71.54Z" fill="white"/>
</g>
<rect x="1" y="1" width="78" height="78" rx="9" stroke="#F15F2C" stroke-width="2"/>
<rect x="1" y="1" width="78" height="78" rx="9" stroke="black" stroke-opacity="0.5" stroke-width="2"/>
<defs>
<filter id="filter0_f_157_629" x="-104" y="-44" width="288" height="288" filterUnits="userSpaceOnUse" color-interpolation-filters="sRGB">
<feFlood flood-opacity="0" result="BackgroundImageFix"/>
<feBlend mode="normal" in="SourceGraphic" in2="BackgroundImageFix" result="shape"/>
<feGaussianBlur stdDeviation="32" result="effect1_foregroundBlur_157_629"/>
</filter>
<clipPath id="clip0_157_629">
<rect width="80" height="80" rx="10" fill="white"/>
</clipPath>
</defs>
</svg>
