<svg width="44" height="44" viewBox="0 0 44 44" fill="none" xmlns="http://www.w3.org/2000/svg">
<g clip-path="url(#clip0_83_773)">
<rect x="1.5" y="1.5" width="41" height="41" rx="8.5" fill="#16181C"/>
<rect x="1.5" y="1.5" width="41" height="41" rx="8.5" stroke="#1BD96A" stroke-width="3"/>
<rect x="1.5" y="1.5" width="41" height="41" rx="8.5" stroke="black" stroke-opacity="0.7" stroke-width="3"/>
<g opacity="0.1" filter="url(#filter0_f_83_773)">
<circle cx="4" cy="100" r="80" fill="#1BD96A"/>
</g>
<g clip-path="url(#clip1_83_773)">
<path fill-rule="evenodd" clip-rule="evenodd" d="M37.4475 26.1438C38.1594 23.5234 38.2075 20.687 37.45 17.8761C35.1607 9.37619 26.3775 4.33152 17.8332 6.60887C11.2382 8.367 6.7119 13.9732 6.04315 20.3483H8.7494C9.39315 15.1723 13.1088 10.6525 18.4844 9.2193C25.1282 7.44809 31.9457 11.0223 34.3232 17.2921L31.6894 17.9938C30.4775 15.077 28.0357 12.9385 25.1438 12.0277L24.66 14.757C26.9432 15.5956 28.795 17.4864 29.4725 20.0022C30.46 23.6685 28.6213 27.4251 25.285 28.9833L26.0057 31.6598C30.3907 29.8574 33.025 25.3183 32.4019 20.6391L35.0257 19.9399C35.301 21.6848 35.219 23.4671 34.7844 25.1795L37.4475 26.1438Z" fill="#1BD96A"/>
<path d="M26.1244 37.3911C17.5794 39.6685 8.79688 34.6238 6.50687 26.1239C6.24445 25.1504 6.07474 24.1545 6 23.1493H8.70438C8.7725 23.8907 8.90438 24.6366 9.105 25.3799C9.315 26.1588 9.59063 26.9027 9.92438 27.6075L12.3362 26.1662C12.1331 25.6993 11.9619 25.2125 11.8256 24.7063C10.3231 19.1281 13.6506 13.3942 19.2581 11.8995C20.3206 11.6162 21.3894 11.506 22.4331 11.5502L21.9494 14.2802C21.2956 14.2833 20.6319 14.3686 19.9706 14.5447C15.8319 15.6486 13.3756 19.8802 14.4844 23.9978C14.5531 24.2512 14.6331 24.4984 14.7244 24.7387L17.8088 22.8953L16.8794 20.4405L19.7919 17.4602L23.4731 16.6702L24.5387 17.977L22.8419 19.689L21.3619 20.1528L20.3044 21.2355L20.8225 22.6718C20.8225 22.6718 21.8719 23.7824 21.8737 23.783L23.3563 23.3902L24.4112 22.236L26.715 21.5094L27.4013 23.0472L25.0244 25.9502L21.0413 27.2065L19.255 25.2255L16.1412 27.0864C17.7375 28.8968 20.1375 29.9023 22.6256 29.6924L23.3463 32.3689C19.6331 32.8582 16.0063 31.3273 13.7531 28.5146L11.3525 29.9489C14.5156 34.0884 19.99 36.1391 25.3506 34.7104C29.2094 33.6819 32.2125 31.0621 33.8388 27.7513L36.5037 28.7163C34.5731 32.8426 30.8888 36.1211 26.1244 37.3911Z" fill="#1BD96A"/>
</g>
</g>
<rect x="1" y="1" width="42" height="42" rx="9" stroke="#1BD96A" stroke-width="2"/>
<rect x="1" y="1" width="42" height="42" rx="9" stroke="black" stroke-opacity="0.8" stroke-width="2"/>
<defs>
<filter id="filter0_f_83_773" x="-140" y="-44" width="288" height="288" filterUnits="userSpaceOnUse" color-interpolation-filters="sRGB">
<feFlood flood-opacity="0" result="BackgroundImageFix"/>
<feBlend mode="normal" in="SourceGraphic" in2="BackgroundImageFix" result="shape"/>
<feGaussianBlur stdDeviation="32" result="effect1_foregroundBlur_83_773"/>
</filter>
<clipPath id="clip0_83_773">
<rect width="44" height="44" rx="10" fill="white"/>
</clipPath>
<clipPath id="clip1_83_773">
<rect width="32" height="32" fill="white" transform="translate(6 6)"/>
</clipPath>
</defs>
</svg>
