<svg width="80" height="80" viewBox="0 0 80 80" fill="none" xmlns="http://www.w3.org/2000/svg">
<g clip-path="url(#clip0_157_718)">
<rect x="1.5" y="1.5" width="77" height="77" rx="8.5" fill="#F4EFE8"/>
<rect x="1.5" y="1.5" width="77" height="77" rx="8.5" stroke="#E3D6C6" stroke-width="3"/>
<rect x="1.5" y="1.5" width="77" height="77" rx="8.5" stroke="black" stroke-opacity="0.2" stroke-width="3"/>
<g opacity="0.1" filter="url(#filter0_f_157_718)">
<circle cx="40" cy="100" r="80" fill="#FF6433"/>
</g>
<g clip-path="url(#clip1_157_718)">
<mask id="mask0_157_718" style="mask-type:luminance" maskUnits="userSpaceOnUse" x="7" y="14" width="65" height="52">
<path d="M71.859 14.257H7.99841V65.978H71.859V14.257Z" fill="white"/>
</mask>
<g mask="url(#mask0_157_718)">
<path d="M33.5294 65.9761C24.234 65.9761 16.6731 61.78 12.2415 54.1604C8.31808 47.4816 7.99841 40.2474 7.99841 32.1641C7.99841 27.3719 9.42681 23.1996 12.1271 20.097C14.6087 17.2475 18.125 15.4016 22.03 14.899C26.6651 14.3063 32.4275 14.257 38.4186 14.257C48.1683 14.257 50.9225 14.3776 54.7585 14.7648C59.8612 15.2759 64.1548 17.1983 67.1732 20.3246C70.2388 23.5001 71.859 27.7404 71.859 32.5921V33.5669C71.859 41.8455 66.3757 48.7738 58.7342 50.6571C58.1638 52.0155 57.4571 53.3675 56.6211 54.6986L56.5991 54.7326C53.9071 58.9323 47.5796 65.978 35.4592 65.978H33.5278L33.5294 65.9761Z" fill="white"/>
<path d="M54.3582 18.8186C50.7357 18.4535 48.2004 18.3313 38.4204 18.3313C32.1415 18.3313 26.8283 18.3924 22.5432 18.9409C16.8683 19.6728 12.038 24.0592 12.038 32.1645C12.038 40.2698 12.4603 46.5461 15.7208 52.0905C19.4037 58.4281 25.5615 61.9008 33.5312 61.9008H35.4625C45.2426 61.9008 50.5559 56.6604 53.2123 52.517C54.3598 50.6879 55.2043 48.8609 55.7479 47.0318C62.6912 46.4223 67.8227 40.6332 67.8227 33.5654V32.5907C67.8227 24.9745 62.8729 19.6728 54.3598 18.8186H54.3582Z" fill="white"/>
<path d="M12.0359 32.1645C12.0359 24.0592 16.8662 19.6728 22.541 18.9409C26.8279 18.3924 32.141 18.3313 38.4183 18.3313C48.1984 18.3313 50.7337 18.4535 54.3559 18.8186C62.8692 19.6711 67.8188 24.9728 67.8188 32.5907V33.5654C67.8188 40.6349 62.6873 46.4239 55.744 47.0318C55.2007 48.8609 54.3559 50.6879 53.2084 52.517C50.552 56.6604 45.239 61.9008 35.4589 61.9008H33.5273C25.5576 61.9008 19.3999 58.4281 15.717 52.0905C12.4565 46.5461 12.0342 40.3904 12.0342 32.1645" fill="#202020"/>
<path d="M16.5634 32.2241C16.5634 40.0849 17.0463 45.1421 19.5817 49.8342C22.4789 55.258 27.7315 57.3297 33.7093 57.3297H35.5802C43.4286 57.3297 47.2327 53.4903 49.3458 50.1397C50.3722 48.4331 51.2772 46.5448 51.76 44.1672L52.1219 42.644H54.2956C59.1258 42.644 63.2917 38.6839 63.2917 33.6251V32.7115C63.2917 27.0447 59.7905 24.0577 53.6917 23.3275C50.2511 23.0235 48.1983 22.9012 38.4167 22.9012C31.8367 22.9012 27.1275 22.9623 23.5658 23.5109C18.5555 24.2428 16.5618 27.1059 16.5618 32.2241" fill="white"/>
<path d="M52.1249 36.4297C52.1249 37.1616 52.6682 37.7102 53.6341 37.7102C56.713 37.7102 58.4038 35.9424 58.4038 33.0182C58.4038 30.0939 56.713 28.265 53.6341 28.265C52.6682 28.265 52.1249 28.8135 52.1249 29.5454V36.4315V36.4297Z" fill="#202020"/>
<path d="M22.4815 36.0651C22.4815 39.6601 24.4735 42.7678 27.0089 45.2064C28.6997 46.8517 31.3563 48.5586 33.1666 49.6554C33.71 49.9596 34.2535 50.1429 34.8576 50.1429C35.5826 50.1429 36.1849 49.9596 36.6695 49.6554C38.4814 48.5586 41.1362 46.8517 42.7668 45.2064C45.3626 42.7694 47.3546 39.6618 47.3546 36.0651C47.3546 32.1644 44.4576 28.6917 40.2918 28.6917C37.817 28.6917 36.1259 29.9721 34.8576 31.7382C33.71 29.9704 31.9603 28.6917 29.4838 28.6917C25.2575 28.6917 22.4797 32.1644 22.4797 36.0651" fill="#FF5A16"/>
</g>
</g>
</g>
<rect x="1" y="1" width="78" height="78" rx="9" stroke="#E3D6C6" stroke-width="2"/>
<rect x="1" y="1" width="78" height="78" rx="9" stroke="black" stroke-opacity="0.4" stroke-width="2"/>
<defs>
<filter id="filter0_f_157_718" x="-104" y="-44" width="288" height="288" filterUnits="userSpaceOnUse" color-interpolation-filters="sRGB">
<feFlood flood-opacity="0" result="BackgroundImageFix"/>
<feBlend mode="normal" in="SourceGraphic" in2="BackgroundImageFix" result="shape"/>
<feGaussianBlur stdDeviation="32" result="effect1_foregroundBlur_157_718"/>
</filter>
<clipPath id="clip0_157_718">
<rect width="80" height="80" rx="10" fill="white"/>
</clipPath>
<clipPath id="clip1_157_718">
<rect width="64" height="52" fill="white" transform="translate(8 14)"/>
</clipPath>
</defs>
</svg>
