<svg width="80" height="80" viewBox="0 0 80 80" fill="none" xmlns="http://www.w3.org/2000/svg">
<g clip-path="url(#clip0_56_410)">
<rect x="1.5" y="1.5" width="77" height="77" rx="8.5" fill="#38342A"/>
<rect x="1.5" y="1.5" width="77" height="77" rx="8.5" fill="black" fill-opacity="0.5"/>
<rect x="1.5" y="1.5" width="77" height="77" rx="8.5" stroke="#38342A" stroke-width="3"/>
<rect x="1.5" y="1.5" width="77" height="77" rx="8.5" stroke="white" stroke-opacity="0.1" stroke-width="3"/>
<g opacity="0.1" filter="url(#filter0_f_56_410)">
<circle cx="40" cy="100" r="80" fill="#DBD0B4"/>
</g>
<path d="M32.8571 67.4286H28.2857V62.8571H32.8571V67.4286ZM28.2857 58.2857H23.7143V62.8571H28.2857V58.2857ZM23.7143 53.7143H19.1429V58.2857H23.7143V53.7143ZM19.1429 49.1429H14.5714V53.7143H19.1429V49.1429Z" fill="#9A927E"/>
<path d="M32.8571 58.2857V62.8571H28.2857V58.2857H32.8571ZM23.7143 53.7143V58.2857H28.2857V53.7143H23.7143ZM19.1429 49.1429V53.7143H23.7143V49.1429H19.1429ZM19.1429 49.1429V44.5714H14.5714V49.1429H19.1429Z" fill="#AEA694"/>
<path d="M64.8571 35.4286H60.2857V40H64.8571V35.4286Z" fill="#807A6D"/>
<path d="M32.8571 58.2857H37.4286V62.8571H32.8571V58.2857ZM42 49.1429H37.4286V58.2857H42V53.7143H46.5714V49.1429H42ZM55.7143 35.4286H51.1429V40H46.5714V49.1429H51.1429V44.5714H55.7143V35.4286ZM55.7143 35.4286H60.2857V30.8571H55.7143V35.4286ZM55.7143 26.2857H51.1429V30.8571H55.7143V26.2857ZM51.1429 21.7143H46.5714V26.2857H51.1429V21.7143Z" fill="#BCB29C"/>
<path d="M42 44.5714V49.1429H32.8571V44.5714H42ZM28.2857 40V44.5714H32.8571V40H28.2857ZM42 35.4286V40H51.1429V35.4286H42ZM37.4286 30.8571V35.4286H42V30.8571H37.4286ZM37.4286 30.8571V26.2857H32.8571V30.8571H37.4286ZM46.5714 17.1429H42V21.7143H46.5714V17.1429Z" fill="#C6BCA5"/>
<path d="M19.1429 44.5714V40H23.7143V35.4286H28.2857V30.8571H37.4286V35.4286H42V40H46.5714V49.1429H42V44.5714H32.8571V40H28.2857V44.5714H32.8571V49.1429H37.4286V58.2857H28.2857V53.7143H23.7143V49.1429H19.1429V44.5714ZM55.7143 30.8571H60.2857V26.2857H55.7143V30.8571ZM37.4286 30.8571H42V35.4286H51.1429V30.8571H46.5714V26.2857H42V21.7143H37.4286V30.8571ZM51.1429 26.2857H55.7143V21.7143H51.1429V26.2857ZM46.5714 21.7143H51.1429V17.1429H46.5714V21.7143ZM46.5714 17.1429V12.5714H42V17.1429H46.5714Z" fill="#DBD0B4"/>
<path d="M28.2857 62.8571V67.4286H23.7143V62.8571H28.2857ZM37.4286 62.8571H32.8571V67.4286H28.2857V72H37.4286V67.4286H42V58.2857H37.4286V62.8571ZM19.1429 58.2857V62.8571H23.7143V58.2857H19.1429ZM42 58.2857H46.5714V53.7143H42V58.2857ZM14.5714 53.7143V58.2857H19.1429V53.7143H14.5714ZM46.5714 53.7143H51.1429V49.1429H46.5714V53.7143ZM51.1429 49.1429H55.7143V44.5714H51.1429V49.1429ZM14.5714 44.5714H10V53.7143H14.5714V44.5714ZM19.1429 40H14.5714V44.5714H19.1429V40ZM60.2857 35.4286H55.7143V44.5714H64.8571V40H60.2857V35.4286ZM23.7143 35.4286H19.1429V40H23.7143V35.4286ZM64.8571 30.8571V26.2857H60.2857V35.4286H64.8571V40H69.4286V30.8571H64.8571ZM51.1429 30.8571V35.4286H55.7143V30.8571H51.1429ZM28.2857 30.8571H23.7143V35.4286H28.2857V30.8571ZM46.5714 26.2857V30.8571H51.1429V26.2857H46.5714ZM32.8571 26.2857H28.2857V30.8571H32.8571V26.2857ZM60.2857 26.2857V21.7143H55.7143V26.2857H60.2857ZM42 21.7143V26.2857H46.5714V21.7143H42ZM37.4286 21.7143H32.8571V26.2857H37.4286V21.7143ZM55.7143 21.7143V17.1429H51.1429V21.7143H55.7143ZM42 17.1429V12.5714H37.4286V21.7143H42V17.1429ZM51.1429 17.1429V12.5714H46.5714V17.1429H51.1429ZM46.5714 8H42V12.5714H46.5714V8Z" fill="#38342A"/>
</g>
<rect x="1" y="1" width="78" height="78" rx="9" stroke="#38342A" stroke-width="2"/>
<rect x="1" y="1" width="78" height="78" rx="9" stroke="black" stroke-opacity="0.1" stroke-width="2"/>
<defs>
<filter id="filter0_f_56_410" x="-104" y="-44" width="288" height="288" filterUnits="userSpaceOnUse" color-interpolation-filters="sRGB">
<feFlood flood-opacity="0" result="BackgroundImageFix"/>
<feBlend mode="normal" in="SourceGraphic" in2="BackgroundImageFix" result="shape"/>
<feGaussianBlur stdDeviation="32" result="effect1_foregroundBlur_56_410"/>
</filter>
<clipPath id="clip0_56_410">
<rect width="80" height="80" rx="10" fill="white"/>
</clipPath>
</defs>
</svg>
