<svg width="80" height="80" viewBox="0 0 80 80" fill="none" xmlns="http://www.w3.org/2000/svg">
<g clip-path="url(#clip0_83_770)">
<rect x="1.5" y="1.5" width="77" height="77" rx="8.5" fill="#16181C"/>
<rect x="1.5" y="1.5" width="77" height="77" rx="8.5" stroke="#1BD96A" stroke-width="3"/>
<rect x="1.5" y="1.5" width="77" height="77" rx="8.5" stroke="black" stroke-opacity="0.7" stroke-width="3"/>
<g opacity="0.1" filter="url(#filter0_f_83_770)">
<circle cx="40" cy="100" r="80" fill="#1BD96A"/>
</g>
<g clip-path="url(#clip1_83_770)">
<path fill-rule="evenodd" clip-rule="evenodd" d="M70.895 48.2876C72.3187 43.0468 72.415 37.374 70.9 31.7522C66.3212 14.7524 48.755 4.66304 31.6662 9.21774C18.4762 12.734 9.42374 23.9465 8.08624 36.6967H13.4987C14.7862 26.3446 22.2175 17.3049 32.9687 14.4386C46.2562 10.8962 59.8912 18.0445 64.6462 30.5843L59.3787 31.9875C56.955 26.1541 52.0712 21.877 46.2875 20.0554L45.32 25.5141C49.8862 27.1913 53.59 30.9728 54.945 36.0044C56.92 43.337 53.2425 50.8501 46.57 53.9667L48.0112 59.3195C56.7812 55.7149 62.05 46.6366 60.8037 37.2781L66.0512 35.8798C66.602 39.3695 66.4379 42.9341 65.5687 46.3589L70.895 48.2876Z" fill="#1BD96A"/>
<path d="M48.2487 70.7823C31.1587 75.337 13.5938 65.2476 9.01375 48.2478C8.4889 46.3008 8.14948 44.3089 8 42.2985H13.4088C13.545 43.7815 13.8088 45.2732 14.21 46.7598C14.63 48.3175 15.1813 49.8055 15.8488 51.2149L20.6725 48.3325C20.2662 47.3986 19.9237 46.4249 19.6512 45.4126C16.6462 34.2562 23.3013 22.7885 34.5163 19.7989C36.6413 19.2324 38.7787 19.012 40.8662 19.1004L39.8988 24.5603C38.5912 24.5665 37.2638 24.7371 35.9412 25.0895C27.6637 27.2971 22.7513 35.7603 24.9688 43.9956C25.1063 44.5024 25.2662 44.9967 25.4487 45.4774L31.6175 41.7905L29.7588 36.8809L35.5837 30.9205L42.9463 29.3404L45.0775 31.9539L41.6838 35.3781L38.7237 36.3057L36.6087 38.471L37.645 41.3435C37.645 41.3435 39.7437 43.5648 39.7475 43.5661L42.7125 42.7804L44.8225 40.4719L49.43 39.0188L50.8025 42.0943L46.0488 47.9004L38.0825 50.4131L34.51 46.4511L28.2825 50.1728C31.475 53.7936 36.275 55.8045 41.2513 55.3849L42.6925 60.7377C35.2663 61.7164 28.0125 58.6546 23.5063 53.0291L18.705 55.8979C25.0312 64.1768 35.98 68.2783 46.7012 65.4207C54.4187 63.3637 60.425 58.1242 63.6775 51.5026L69.0075 53.4325C65.1462 61.6853 57.7775 68.2422 48.2487 70.7823Z" fill="#1BD96A"/>
</g>
</g>
<rect x="1" y="1" width="78" height="78" rx="9" stroke="#1BD96A" stroke-width="2"/>
<rect x="1" y="1" width="78" height="78" rx="9" stroke="black" stroke-opacity="0.8" stroke-width="2"/>
<defs>
<filter id="filter0_f_83_770" x="-104" y="-44" width="288" height="288" filterUnits="userSpaceOnUse" color-interpolation-filters="sRGB">
<feFlood flood-opacity="0" result="BackgroundImageFix"/>
<feBlend mode="normal" in="SourceGraphic" in2="BackgroundImageFix" result="shape"/>
<feGaussianBlur stdDeviation="32" result="effect1_foregroundBlur_83_770"/>
</filter>
<clipPath id="clip0_83_770">
<rect width="80" height="80" rx="10" fill="white"/>
</clipPath>
<clipPath id="clip1_83_770">
<rect width="64" height="64" fill="white" transform="translate(8 8)"/>
</clipPath>
</defs>
</svg>
