<svg width="44" height="44" viewBox="0 0 44 44" fill="none" xmlns="http://www.w3.org/2000/svg">
<g clip-path="url(#clip0_157_721)">
<rect x="1.5" y="1.5" width="41" height="41" rx="8.5" fill="#F4EFE8"/>
<rect x="1.5" y="1.5" width="41" height="41" rx="8.5" stroke="#E3D6C6" stroke-width="3"/>
<rect x="1.5" y="1.5" width="41" height="41" rx="8.5" stroke="black" stroke-opacity="0.2" stroke-width="3"/>
<g opacity="0.1" filter="url(#filter0_f_157_721)">
<circle cx="4" cy="100" r="80" fill="#FF6433"/>
</g>
<g clip-path="url(#clip1_157_721)">
<mask id="mask0_157_721" style="mask-type:luminance" maskUnits="userSpaceOnUse" x="5" y="9" width="33" height="26">
<path d="M37.9295 9.12851H5.99927V34.989H37.9295V9.12851Z" fill="white"/>
</mask>
<g mask="url(#mask0_157_721)">
<path d="M18.7648 34.9881C14.1171 34.9881 10.3366 32.89 8.12082 29.0802C6.1591 25.7408 5.99927 22.1237 5.99927 18.0821C5.99927 15.686 6.71346 13.5998 8.06362 12.0485C9.30442 10.6237 11.0626 9.70079 13.015 9.44946C15.3326 9.15313 18.2138 9.12851 21.2093 9.12851C26.0842 9.12851 27.4613 9.18879 29.3793 9.38238C31.9307 9.63796 34.0775 10.5991 35.5866 12.1623C37.1194 13.7501 37.9295 15.8702 37.9295 18.296V18.7834C37.9295 22.9227 35.1879 26.3869 31.3672 27.3285C31.0819 28.0077 30.7286 28.6837 30.3106 29.3493L30.2996 29.3663C28.9536 31.4661 25.7899 34.989 19.7296 34.989H18.7639L18.7648 34.9881Z" fill="white"/>
<path d="M29.1792 11.4093C27.3679 11.2268 26.1003 11.1656 21.2102 11.1656C18.0708 11.1656 15.4142 11.1962 13.2716 11.4704C10.4342 11.8364 8.01904 14.0296 8.01904 18.0822C8.01904 22.1349 8.23019 25.273 9.86048 28.0453C11.7019 31.214 14.7808 32.9504 18.7657 32.9504H19.7313C24.6214 32.9504 27.278 30.3302 28.6062 28.2585C29.18 27.3439 29.6022 26.4304 29.874 25.5159C33.3457 25.2111 35.9114 22.3166 35.9114 18.7827V18.2954C35.9114 14.4872 33.4365 11.8364 29.18 11.4093H29.1792Z" fill="white"/>
<path d="M8.01793 18.0822C8.01793 14.0296 10.4331 11.8364 13.2705 11.4704C15.4139 11.1962 18.0705 11.1656 21.2092 11.1656C26.0992 11.1656 27.3668 11.2268 29.178 11.4093C33.4346 11.8355 35.9094 14.4864 35.9094 18.2954V18.7827C35.9094 22.3174 33.3437 25.2119 29.872 25.5159C29.6003 26.4304 29.178 27.3439 28.6042 28.2585C27.276 30.3302 24.6195 32.9504 19.7295 32.9504H18.7637C14.7788 32.9504 11.6999 31.214 9.85852 28.0453C8.22824 25.273 8.01709 22.1952 8.01709 18.0822" fill="#202020"/>
<path d="M10.2818 18.112C10.2818 22.0424 10.5233 24.571 11.791 26.9171C13.2396 29.629 15.8659 30.6648 18.8547 30.6648H19.7902C23.7144 30.6648 25.6165 28.7451 26.673 27.0698C27.1862 26.2165 27.6387 25.2724 27.8801 24.0836L28.0611 23.322H29.1479C31.563 23.322 33.646 21.3419 33.646 18.8125V18.3557C33.646 15.5223 31.8954 14.0288 28.846 13.6637C27.1257 13.5117 26.0993 13.4506 21.2084 13.4506C17.9184 13.4506 15.5639 13.4811 13.783 13.7554C11.2779 14.1214 10.281 15.5529 10.281 18.112" fill="white"/>
<path d="M28.0625 20.2149C28.0625 20.5808 28.3342 20.8551 28.8171 20.8551C30.3565 20.8551 31.202 19.9712 31.202 18.5091C31.202 17.047 30.3565 16.1325 28.8171 16.1325C28.3342 16.1325 28.0625 16.4067 28.0625 16.7727V20.2157V20.2149Z" fill="#202020"/>
<path d="M13.2409 20.0325C13.2409 21.83 14.2369 23.3839 15.5046 24.6032C16.35 25.4258 17.6783 26.2793 18.5834 26.8277C18.8551 26.9798 19.1269 27.0715 19.4289 27.0715C19.7914 27.0715 20.0926 26.9798 20.3349 26.8277C21.2408 26.2793 22.5682 25.4258 23.3835 24.6032C24.6814 23.3847 25.6774 21.8309 25.6774 20.0325C25.6774 18.0822 24.2289 16.3459 22.146 16.3459C20.9086 16.3459 20.0631 16.986 19.4289 17.8691C18.8551 16.9852 17.9803 16.3459 16.742 16.3459C14.6289 16.3459 13.24 18.0822 13.24 20.0325" fill="#FF5A16"/>
</g>
</g>
</g>
<rect x="1" y="1" width="42" height="42" rx="9" stroke="#E3D6C6" stroke-width="2"/>
<rect x="1" y="1" width="42" height="42" rx="9" stroke="black" stroke-opacity="0.4" stroke-width="2"/>
<defs>
<filter id="filter0_f_157_721" x="-140" y="-44" width="288" height="288" filterUnits="userSpaceOnUse" color-interpolation-filters="sRGB">
<feFlood flood-opacity="0" result="BackgroundImageFix"/>
<feBlend mode="normal" in="SourceGraphic" in2="BackgroundImageFix" result="shape"/>
<feGaussianBlur stdDeviation="32" result="effect1_foregroundBlur_157_721"/>
</filter>
<clipPath id="clip0_157_721">
<rect width="44" height="44" rx="10" fill="white"/>
</clipPath>
<clipPath id="clip1_157_721">
<rect width="32" height="26" fill="white" transform="translate(6 9)"/>
</clipPath>
</defs>
</svg>
