<svg width="80" height="80" viewBox="0 0 80 80" fill="none" xmlns="http://www.w3.org/2000/svg">
<g clip-path="url(#clip0_83_574)">
<rect x="1.5" y="1.5" width="77" height="77" rx="8.5" fill="#26303D"/>
<rect x="1.5" y="1.5" width="77" height="77" rx="8.5" fill="black" fill-opacity="0.3"/>
<rect x="1.5" y="1.5" width="77" height="77" rx="8.5" stroke="#3A495C" stroke-width="3"/>
<rect x="1.5" y="1.5" width="77" height="77" rx="8.5" stroke="black" stroke-opacity="0.1" stroke-width="3"/>
<g opacity="0.1" filter="url(#filter0_f_83_574)">
<circle cx="40" cy="100" r="80" fill="#DE9E59"/>
</g>
<path d="M65.8909 28.2182L38.4 26.8364H72V24.1454H34.0364V34.3273C34.0364 34.4 32.9455 27.7091 32.6545 25.8182H29.6727V35.2727C29.6727 35.3454 28.3636 27.3454 28.2909 26.3273H8C9.38182 27.4909 17.0182 34.0364 22.4727 36.7273C25.1636 38.0363 28.5091 38.1091 31.4909 38.1818C33.0182 38.2545 34.5455 38.3273 35.7091 39.4909C37.3818 41.0909 37.7455 43.6363 36.2909 45.5273C34.9091 47.4182 30.9818 47.8545 30.9818 47.8545L27.6364 51.7818V56.4363H35.1273L35.3455 51.8545L41.8182 47.2727C41.1636 47.8545 39.5636 49.3091 37.3091 52.8727C36.8 53.6727 36.3636 54.5454 36.0727 55.4182C37.6727 54.0363 41.0182 53.0909 44.9455 53.0909C48.8727 53.0909 52.1455 54.0363 53.7455 55.4182C53.4545 54.5454 53.0182 53.6727 52.5091 52.8727C50.1818 49.3091 48.6545 47.8545 48 47.2727L54.4727 51.8545L54.6909 56.4363H61.6727V51.7818L58.4 47.7818C58.4 47.7818 53.5273 47.4909 52.2909 45.4545C48.5091 39.7818 53.6727 30.9091 65.8909 28.2182Z" fill="#DFA86A"/>
</g>
<rect x="1" y="1" width="78" height="78" rx="9" stroke="#26303D" stroke-width="2"/>
<defs>
<filter id="filter0_f_83_574" x="-104" y="-44" width="288" height="288" filterUnits="userSpaceOnUse" color-interpolation-filters="sRGB">
<feFlood flood-opacity="0" result="BackgroundImageFix"/>
<feBlend mode="normal" in="SourceGraphic" in2="BackgroundImageFix" result="shape"/>
<feGaussianBlur stdDeviation="32" result="effect1_foregroundBlur_83_574"/>
</filter>
<clipPath id="clip0_83_574">
<rect width="80" height="80" rx="10" fill="white"/>
</clipPath>
</defs>
</svg>
