<svg width="44" height="44" viewBox="0 0 44 44" fill="none" xmlns="http://www.w3.org/2000/svg">
<g clip-path="url(#clip0_80_337)">
<rect x="1.5" y="1.5" width="41" height="41" rx="8.5" fill="#38342A"/>
<rect x="1.5" y="1.5" width="41" height="41" rx="8.5" fill="black" fill-opacity="0.5"/>
<rect x="1.5" y="1.5" width="41" height="41" rx="8.5" stroke="#38342A" stroke-width="3"/>
<rect x="1.5" y="1.5" width="41" height="41" rx="8.5" stroke="white" stroke-opacity="0.1" stroke-width="3"/>
<g opacity="0.1" filter="url(#filter0_f_80_337)">
<circle cx="4" cy="100" r="80" fill="#DBD0B4"/>
</g>
<path d="M18.4286 35.7143H16.1429V33.4286H18.4286V35.7143ZM16.1429 31.1429H13.8571V33.4286H16.1429V31.1429ZM13.8571 28.8571H11.5714V31.1429H13.8571V28.8571ZM11.5714 26.5714H9.28571V28.8571H11.5714V26.5714Z" fill="#9A927E"/>
<path d="M18.4286 31.1429V33.4286H16.1429V31.1429H18.4286ZM13.8571 28.8572V31.1429H16.1429V28.8572H13.8571ZM11.5714 26.5714V28.8572H13.8571V26.5714H11.5714ZM11.5714 26.5714V24.2857H9.28571V26.5714H11.5714Z" fill="#AEA694"/>
<path d="M34.4286 19.7143H32.1429V22H34.4286V19.7143Z" fill="#807A6D"/>
<path d="M18.4286 31.1429H20.7143V33.4286H18.4286V31.1429ZM23 26.5714H20.7143V31.1429H23V28.8571H25.2857V26.5714H23ZM29.8571 19.7143H27.5714V22H25.2857V26.5714H27.5714V24.2857H29.8571V19.7143ZM29.8571 19.7143H32.1429V17.4286H29.8571V19.7143ZM29.8571 15.1429H27.5714V17.4286H29.8571V15.1429ZM27.5714 12.8571H25.2857V15.1429H27.5714V12.8571Z" fill="#BCB29C"/>
<path d="M23 24.2857V26.5714H18.4286V24.2857H23ZM16.1429 22V24.2857H18.4286V22H16.1429ZM23 19.7143V22H27.5714V19.7143H23ZM20.7143 17.4286V19.7143H23V17.4286H20.7143ZM20.7143 17.4286V15.1429H18.4286V17.4286H20.7143ZM25.2857 10.5714H23V12.8571H25.2857V10.5714Z" fill="#C6BCA5"/>
<path d="M11.5714 24.2857V22H13.8571V19.7143H16.1429V17.4286H20.7143V19.7143H23V22H25.2857V26.5714H23V24.2857H18.4286V22H16.1429V24.2857H18.4286V26.5714H20.7143V31.1429H16.1429V28.8571H13.8571V26.5714H11.5714V24.2857ZM29.8571 17.4286H32.1429V15.1429H29.8571V17.4286ZM20.7143 17.4286H23V19.7143H27.5714V17.4286H25.2857V15.1429H23V12.8571H20.7143V17.4286ZM27.5714 15.1429H29.8571V12.8571H27.5714V15.1429ZM25.2857 12.8571H27.5714V10.5714H25.2857V12.8571ZM25.2857 10.5714V8.28571H23V10.5714H25.2857Z" fill="#DBD0B4"/>
<path d="M16.1429 33.4286V35.7143H13.8571V33.4286H16.1429ZM20.7143 33.4286H18.4286V35.7143H16.1429V38H20.7143V35.7143H23V31.1429H20.7143V33.4286ZM11.5714 31.1429V33.4286H13.8571V31.1429H11.5714ZM23 31.1429H25.2857V28.8571H23V31.1429ZM9.28571 28.8571V31.1429H11.5714V28.8571H9.28571ZM25.2857 28.8571H27.5714V26.5714H25.2857V28.8571ZM27.5714 26.5714H29.8571V24.2857H27.5714V26.5714ZM9.28571 24.2857H7V28.8571H9.28571V24.2857ZM11.5714 22H9.28571V24.2857H11.5714V22ZM32.1429 19.7143H29.8571V24.2857H34.4286V22H32.1429V19.7143ZM13.8571 19.7143H11.5714V22H13.8571V19.7143ZM34.4286 17.4286V15.1429H32.1429V19.7143H34.4286V22H36.7143V17.4286H34.4286ZM27.5714 17.4286V19.7143H29.8571V17.4286H27.5714ZM16.1429 17.4286H13.8571V19.7143H16.1429V17.4286ZM25.2857 15.1429V17.4286H27.5714V15.1429H25.2857ZM18.4286 15.1429H16.1429V17.4286H18.4286V15.1429ZM32.1429 15.1429V12.8571H29.8571V15.1429H32.1429ZM23 12.8571V15.1429H25.2857V12.8571H23ZM20.7143 12.8571H18.4286V15.1429H20.7143V12.8571ZM29.8571 12.8571V10.5714H27.5714V12.8571H29.8571ZM23 10.5714V8.28571H20.7143V12.8571H23V10.5714ZM27.5714 10.5714V8.28571H25.2857V10.5714H27.5714ZM25.2857 6H23V8.28571H25.2857V6Z" fill="#38342A"/>
</g>
<rect x="1" y="1" width="42" height="42" rx="9" stroke="#38342A" stroke-width="2"/>
<rect x="1" y="1" width="42" height="42" rx="9" stroke="black" stroke-opacity="0.1" stroke-width="2"/>
<defs>
<filter id="filter0_f_80_337" x="-140" y="-44" width="288" height="288" filterUnits="userSpaceOnUse" color-interpolation-filters="sRGB">
<feFlood flood-opacity="0" result="BackgroundImageFix"/>
<feBlend mode="normal" in="SourceGraphic" in2="BackgroundImageFix" result="shape"/>
<feGaussianBlur stdDeviation="32" result="effect1_foregroundBlur_80_337"/>
</filter>
<clipPath id="clip0_80_337">
<rect width="44" height="44" rx="10" fill="white"/>
</clipPath>
</defs>
</svg>
